<svg width="38" height="37" viewBox="0 0 38 37" fill="none" xmlns="http://www.w3.org/2000/svg">
<path d="M4 19.2998H34C34.9389 19.2998 35.7002 20.0611 35.7002 21V36.7002H2.2998V21C2.2998 20.0611 3.06112 19.2998 4 19.2998Z" fill="#E5B7FF" stroke="black" stroke-width="0.6"/>
<path d="M0 36.5996C33.7668 36.5996 39.2606 36.5996 37.7867 36.5996" stroke="black" stroke-width="0.6"/>
<path d="M8.5 36.5996V14.3365L19 9.59961L29.5 14.3365V36.5996H8.5Z" fill="#D287FE" stroke="black" stroke-width="0.6"/>
<path d="M19 2.5V9.5" stroke="black" stroke-width="0.6"/>
<path d="M26.1001 0.299805C26.7628 0.299805 27.3003 0.837258 27.3003 1.5V4.5C27.3003 5.16274 26.7628 5.7002 26.1001 5.7002H18.8999V0.299805H26.1001Z" fill="#A40000" stroke="black" stroke-width="0.6"/>
<circle cx="18.8999" cy="21.5" r="3.2" fill="#F6E7FE" stroke="black" stroke-width="0.6"/>
<path d="M17 29.2998H21C21.9389 29.2998 22.7002 30.0611 22.7002 31V36.7002H15.2998V31C15.2998 30.0611 16.0611 29.2998 17 29.2998Z" fill="#F6E7FE" stroke="black" stroke-width="0.6"/>
</svg>
