<svg width="40" height="40" viewBox="0 0 40 40" fill="none" xmlns="http://www.w3.org/2000/svg">
<path d="M35 10.2998C37.0435 10.2998 38.7002 11.9565 38.7002 14V36C38.7002 36.9389 37.9389 37.7002 37 37.7002H16C15.0611 37.7002 14.2998 36.9389 14.2998 36V10.2998H35Z" fill="#E8EAFF" stroke="black" stroke-width="0.6"/>
<path d="M8 23V3L10.0952 1L11.6667 3L13.2381 1L15.3333 3L16.9048 1L19 2.5L20.5714 1L22.6667 2.5L24.7619 1L26.3333 2.5L28.4286 1L30 3V19.4386C30 20.6432 30.1683 21.8419 30.5 23H8Z" fill="#E8EAFF" stroke="black" stroke-width="0.6"/>
<path d="M30 10.5H35.5C34.2776 11.8403 33.6 13.5889 33.6 15.403V19.7387C33.6 20.5123 33.4112 21.2742 33.05 21.9583L32.9773 22.096C32.6837 22.6521 32.1065 23 31.4778 23C30.8939 23 30.3755 22.6264 30.1908 22.0724L30.0722 21.7167C30.0244 21.5732 30 21.4229 30 21.2716V10.5Z" fill="white" stroke="black" stroke-width="0.6"/>
<circle cx="13" cy="21" r="7.7" fill="#D9D9D9" stroke="black" stroke-width="0.6"/>
<path d="M3.07469 32.4005C3.83509 31.2611 4.74345 30.3932 5.58366 29.9058C6.44243 29.4078 7.13835 29.3525 7.56505 29.6372C7.99173 29.922 8.20775 30.5858 8.07741 31.57C7.94978 32.5329 7.49692 33.7048 6.73652 34.8442C5.97616 35.9835 5.06823 36.8508 4.2281 37.3381C3.36924 37.8362 2.67341 37.8914 2.24671 37.6067C1.82004 37.3219 1.60394 36.6582 1.73435 35.6739C1.86196 34.7111 2.31442 33.5399 3.07469 32.4005Z" fill="#5A68FF" stroke="black" stroke-width="0.6"/>
<path d="M7.5 29.5L9 27.5" stroke="black" stroke-width="0.6"/>
<path d="M9.06836 18.7578H9.82422V21.7402C9.82422 22.5605 9.27344 23.0586 8.45898 23.0586C7.71484 23.0586 7.14648 22.6543 7.14648 21.875H7.9082C7.9082 22.2207 8.14258 22.4316 8.48828 22.4316C8.85742 22.4316 9.0625 22.1914 9.06836 21.7402V18.7578ZM14.3945 20.8789C14.3945 22.25 13.5625 23.0586 12.4492 23.0586C11.3359 23.0586 10.5039 22.2441 10.5039 20.8789C10.5039 19.5078 11.3359 18.6992 12.4492 18.6992C13.5625 18.6992 14.3945 19.5078 14.3945 20.8789ZM13.627 20.8789C13.627 19.9121 13.1406 19.3848 12.4492 19.3848C11.7578 19.3848 11.2715 19.9121 11.2715 20.8789C11.2715 21.8457 11.7578 22.373 12.4492 22.373C13.1406 22.373 13.627 21.8457 13.627 20.8789ZM15.0742 23V18.7578H16.6973C17.6172 18.7578 18.0742 19.2266 18.0742 19.8594C18.0742 20.375 17.7461 20.6621 17.3301 20.7617V20.8027C17.7812 20.8262 18.2383 21.2012 18.2383 21.8457C18.2383 22.5078 17.7637 23 16.791 23H15.0742ZM16.6738 22.3613C17.2305 22.3613 17.4648 22.1211 17.4648 21.7871C17.4648 21.4062 17.166 21.1133 16.6914 21.1133H15.8359V22.3613H16.6738ZM16.6035 20.5625C17.0078 20.5625 17.3125 20.3281 17.3125 19.9531C17.3125 19.625 17.0781 19.3906 16.6211 19.3906H15.8359V20.5625H16.6035Z" fill="black"/>
<rect x="11.3" y="6.3" width="8.4" height="4.4" rx="0.7" fill="#BABFFF" stroke="black" stroke-width="0.6"/>
<rect x="22" y="7" width="4" height="0.8" rx="0.4" fill="black"/>
<rect x="22" y="9.2002" width="4" height="0.8" rx="0.4" fill="black"/>
<rect x="23" y="27" width="11" height="0.8" rx="0.4" fill="black"/>
<rect x="23" y="30" width="11" height="0.8" rx="0.4" fill="black"/>
<rect x="18" y="33" width="16" height="0.8" rx="0.4" fill="black"/>
</svg>
