<svg width="9" height="12" viewBox="0 0 9 12" fill="none" xmlns="http://www.w3.org/2000/svg">
<path d="M0.840861 8.97979C0.746078 8.89147 0.620713 8.84339 0.491179 8.84567C0.361645 8.84796 0.238055 8.90043 0.146446 8.99204C0.0548378 9.08365 0.00236329 9.20724 7.78183e-05 9.33677C-0.00220765 9.46631 0.0458743 9.59167 0.134194 9.68646L1.46753 11.0198C1.56128 11.1134 1.68836 11.166 1.82086 11.166C1.95336 11.166 2.08044 11.1134 2.17419 11.0198L3.50753 9.68646C3.55665 9.64068 3.59605 9.58548 3.62338 9.52415C3.65071 9.46281 3.6654 9.39661 3.66659 9.32947C3.66777 9.26234 3.65542 9.19565 3.63028 9.13339C3.60513 9.07113 3.5677 9.01458 3.52022 8.9671C3.47274 8.91962 3.41618 8.88219 3.35393 8.85704C3.29167 8.83189 3.22498 8.81954 3.15785 8.82073C3.09071 8.82191 3.0245 8.83661 2.96317 8.86393C2.90184 8.89126 2.84664 8.93066 2.80086 8.97979L2.32086 9.45979L2.32086 2.66646C2.32086 2.53385 2.26818 2.40667 2.17441 2.3129C2.08065 2.21913 1.95347 2.16646 1.82086 2.16646C1.68825 2.16646 1.56108 2.21913 1.46731 2.3129C1.37354 2.40667 1.32086 2.53385 1.32086 2.66646L1.32086 9.45979L0.840861 8.97979ZM5.46753 3.01979C5.56128 3.11342 5.68836 3.16602 5.82086 3.16602C5.95336 3.16602 6.08044 3.11342 6.17419 3.01979L6.65419 2.53979L6.65419 9.33312C6.65419 9.46573 6.70687 9.59291 6.80064 9.68668C6.89441 9.78044 7.02159 9.83312 7.15419 9.83312C7.2868 9.83312 7.41398 9.78044 7.50775 9.68668C7.60152 9.59291 7.65419 9.46573 7.65419 9.33312L7.65419 2.53979L8.13419 3.01979C8.17997 3.06891 8.23517 3.10832 8.2965 3.13564C8.35783 3.16297 8.42404 3.17767 8.49118 3.17885C8.55831 3.18003 8.625 3.16768 8.68726 3.14254C8.74952 3.11739 8.80607 3.07996 8.85355 3.03248C8.90103 2.985 8.93846 2.92845 8.96361 2.86619C8.98876 2.80393 9.0011 2.73724 8.99992 2.67011C8.99874 2.60297 8.98404 2.53676 8.95671 2.47543C8.92939 2.4141 8.88999 2.3589 8.84086 2.31312L7.50753 0.979788C7.41378 0.886155 7.28669 0.833563 7.15419 0.833563C7.02169 0.833563 6.89461 0.886155 6.80086 0.979788L5.46753 2.31312C5.37389 2.40687 5.3213 2.53396 5.3213 2.66646C5.3213 2.79896 5.37389 2.92604 5.46753 3.01979Z" fill="black"/>
</svg>
