<svg width="34" height="35" viewBox="0 0 34 35" fill="none" xmlns="http://www.w3.org/2000/svg">
<path d="M13.6 1.60547H3.39998C2.13249 1.60547 1.10498 2.63298 1.10498 3.90047V14.1005C1.10498 15.368 2.13249 16.3955 3.39998 16.3955H13.6C14.8675 16.3955 15.895 15.368 15.895 14.1005V3.90047C15.895 2.63298 14.8675 1.60547 13.6 1.60547Z" fill="#FF7C6A" stroke="black" stroke-width="0.6"/>
<path d="M30.6 1.60547H20.4C19.1325 1.60547 18.105 2.63298 18.105 3.90047V14.1005C18.105 15.368 19.1325 16.3955 20.4 16.3955H30.6C31.8675 16.3955 32.895 15.368 32.895 14.1005V3.90047C32.895 2.63298 31.8675 1.60547 30.6 1.60547Z" fill="#FFAFA4" stroke="black" stroke-width="0.6"/>
<path d="M13.6 18.6055H3.39998C2.13249 18.6055 1.10498 19.633 1.10498 20.9005V31.1005C1.10498 32.368 2.13249 33.3955 3.39998 33.3955H13.6C14.8675 33.3955 15.895 32.368 15.895 31.1005V20.9005C15.895 19.633 14.8675 18.6055 13.6 18.6055Z" fill="#FFAFA4" stroke="black" stroke-width="0.6"/>
<path d="M30.6 18.6055H20.4C19.1325 18.6055 18.105 19.633 18.105 20.9005V31.1005C18.105 32.368 19.1325 33.3955 20.4 33.3955H30.6C31.8675 33.3955 32.895 32.368 32.895 31.1005V20.9005C32.895 19.633 31.8675 18.6055 30.6 18.6055Z" fill="#FF7C6A" stroke="black" stroke-width="0.6"/>
</svg>
