<svg width="40" height="40" viewBox="0 0 40 40" fill="none" xmlns="http://www.w3.org/2000/svg">
<circle cx="19.3" cy="10.8721" r="2.7" fill="#FFF0B5" stroke="black" stroke-width="0.6"/>
<path d="M26.5 5.97168L24 3.97168L20 5.47168L17.4541 6.42638C16.7731 6.68175 16.5839 7.55555 17.0981 8.06982L22.378 13.3497C22.8982 13.8699 23.7832 13.6692 24.0281 12.9754L26.5 5.97168Z" fill="#D9D9D9" stroke="black" stroke-width="0.6"/>
<path d="M7 38.0686V32.7768C7 32.4131 6.62401 32.1711 6.29295 32.3217L3.5 33.5923L0.924489 34.764C0.546854 34.9358 0.530671 35.4663 0.89713 35.6608L6.26559 38.5102C6.59861 38.687 7 38.4456 7 38.0686Z" stroke="black" stroke-width="0.6"/>
<path d="M2.8999 34.4336L2.8999 36.166L1.39893 35.2998L2.8999 34.4336Z" fill="black" stroke="black"/>
<mask id="path-5-inside-1_1836_17531" fill="white">
<path d="M6 32.9717C6 32.4194 6.44772 31.9717 7 31.9717H38C38.5523 31.9717 39 32.4194 39 32.9717V37.9717C39 38.524 38.5523 38.9717 38 38.9717H6.5C6.22386 38.9717 6 38.7478 6 38.4717V32.9717Z"/>
</mask>
<path d="M6 32.9717C6 32.4194 6.44772 31.9717 7 31.9717H38C38.5523 31.9717 39 32.4194 39 32.9717V37.9717C39 38.524 38.5523 38.9717 38 38.9717H6.5C6.22386 38.9717 6 38.7478 6 38.4717V32.9717Z" fill="#188B18" stroke="black" stroke-width="1.2" mask="url(#path-5-inside-1_1836_17531)"/>
<path d="M39 32.2715C39.3866 32.2715 39.7002 32.5851 39.7002 32.9717V37.9717C39.7002 38.3583 39.3866 38.6719 39 38.6719H34.2998V32.2715H39Z" fill="#FFB9B9" stroke="black" stroke-width="0.6"/>
<rect x="6.60005" y="27.0002" width="21.4" height="5.4" fill="#D2A501" stroke="black" stroke-width="0.6"/>
<path d="M8.30005 21.7715H26.3C27.2389 21.7715 28.0002 22.5328 28.0002 23.4717V27.1719H6.59985V23.4717C6.59985 22.5328 7.36116 21.7715 8.30005 21.7715Z" fill="#D40000" stroke="black" stroke-width="0.6"/>
<path d="M35.6 28.3496H32.4296C30.2205 28.3496 28.4296 30.1405 28.4296 32.3496H39.6C39.6 30.1405 37.8091 28.3496 35.6 28.3496Z" fill="#D9D9D9"/>
<path d="M28.4296 32.3496V32.3496C28.4296 30.1405 30.2205 28.3496 32.4296 28.3496H35.6C37.8091 28.3496 39.6 30.1405 39.6 32.3496V32.3496H28" stroke="black" stroke-width="0.6"/>
<path d="M9.30005 22.2715V24.4715V26.6715" stroke="white" stroke-width="0.6"/>
<path d="M10.8 22.2715V26.6715" stroke="white" stroke-width="0.6"/>
<path d="M25.3 22.2715V26.6715" stroke="white" stroke-width="0.6"/>
<path d="M23.8 22.2715V26.6715" stroke="white" stroke-width="0.6"/>
<path d="M10.8 27.5V31.85" stroke="white" stroke-width="0.6"/>
<path d="M9.30005 27.5V31.85" stroke="white" stroke-width="0.6"/>
<path d="M25.3 27.5V31.85" stroke="white" stroke-width="0.6"/>
<path d="M23.8 27.5V31.85" stroke="white" stroke-width="0.6"/>
<path d="M35.5 18L34 28.5" stroke="black" stroke-width="0.6"/>
<circle cx="36.3" cy="15.9717" r="2.2" fill="#D9D9D9" stroke="black" stroke-width="0.6"/>
<path d="M35 14.4717L27 4.47168" stroke="black" stroke-width="0.6"/>
<path d="M26.9009 1.9191L28.4214 3.43966C28.6946 3.71304 28.694 4.1559 28.4207 4.42919L26.2345 6.61542L23.7244 4.10533L25.9106 1.9191C26.184 1.64573 26.6275 1.64573 26.9009 1.9191Z" fill="#D9D9D9" stroke="black" stroke-width="0.6"/>
<path d="M6 34.4717H34" stroke="black" stroke-width="0.6"/>
<path d="M6 36.4717L34 36.4717" stroke="black" stroke-width="0.6"/>
<rect x="15.7739" y="13.4717" width="0.6" height="2" rx="0.3" transform="rotate(47.4702 15.7739 13.4717)" fill="black"/>
<rect x="15.27" y="11.4717" width="0.6" height="2" rx="0.3" transform="rotate(80.0518 15.27 11.4717)" fill="black"/>
<rect x="17.7539" y="14.4717" width="0.6" height="2" rx="0.3" transform="rotate(13.1174 17.7539 14.4717)" fill="black"/>
</svg>
