<svg width="40" height="40" viewBox="0 0 40 40" fill="none" xmlns="http://www.w3.org/2000/svg">
<circle cx="19.5" cy="19" r="17.7" fill="#B7DEFF" stroke="black" stroke-width="0.6"/>
<path d="M17.0339 35.7232L17.5 36.5H21L21.7444 35.1042C23.894 31.0737 25.2339 26.6614 25.6884 22.1162L26 19H12L12.2198 21.1984C12.7336 26.3358 14.3775 31.2959 17.0339 35.7232Z" fill="#89C8FE" stroke="black" stroke-width="0.6"/>
<rect x="20" y="28" width="13" height="8" fill="white"/>
<path d="M26.4633 23.0145L14.7233 27.6487C14.6406 27.6813 14.6385 27.7976 14.7199 27.8333L26.4598 32.9824C26.4854 32.9936 26.5146 32.9936 26.5402 32.9824L38.2801 27.8333C38.3615 27.7976 38.3594 27.6813 38.2767 27.6487L26.5367 23.0145C26.5131 23.0052 26.4869 23.0052 26.4633 23.0145Z" fill="black" stroke="black"/>
<path d="M26.5 34.6111L20.5 32V36.5C22.7772 38.6404 23.4436 38.6835 26.5 39C28.5 39 30 38.5 32.5 36.5V32L26.5 34.6111Z" fill="black" stroke="black"/>
<path d="M37.5 28.0996V36.5996" stroke="black"/>
<path d="M2 19H37" stroke="black" stroke-width="0.6"/>
<path d="M17.0339 2.27685L17.5 1.5H21L21.7444 2.8958C23.894 6.92628 25.2339 11.3386 25.6884 15.8838L26 19H12L12.2198 16.8016C12.7336 11.6642 14.3775 6.70409 17.0339 2.27685Z" fill="#89C8FE" stroke="black" stroke-width="0.6"/>
</svg>
