<svg width="36" height="39" viewBox="0 0 36 39" fill="none" xmlns="http://www.w3.org/2000/svg">
<path d="M12.4464 25.4686L13.8788 21L18 23.6786L16.0703 29.1972C15.9862 29.4376 15.8136 29.6368 15.5876 29.7543L5.03243 35.2426C4.1857 35.6829 3.14586 35.4635 2.54907 34.7188L2.41702 34.554C1.66464 33.6151 1.90555 32.2293 2.93063 31.5993L12.0177 26.0154C12.2214 25.8902 12.3735 25.6963 12.4464 25.4686Z" fill="#529A51" stroke="black" stroke-width="0.6"/>
<path d="M26.8264 12.1739H24V16L28.5419 15.6018C29.1214 15.551 29.65 15.2504 29.99 14.7783L34.9623 7.87541C35.5104 7.11454 35.2586 6.04474 34.4287 5.60815C33.7615 5.25716 32.9384 5.43968 32.4822 6.03978L28.4185 11.3844C28.0403 11.8818 27.4513 12.1739 26.8264 12.1739Z" fill="#2D692B" stroke="black" stroke-width="0.6"/>
<circle cx="23" cy="4" r="3.7" fill="#2D692B" stroke="black" stroke-width="0.6"/>
<path d="M13.9468 20.0703L16 13.5H13.6606C12.9429 13.5 12.2802 13.8846 11.9242 14.5077L9.47035 18.8019C8.9456 19.7202 7.75271 20.0018 6.87267 19.4151C6.09313 18.8954 5.83353 17.87 6.27189 17.042L9.51796 10.9105C9.82043 10.3392 10.3804 9.94928 11.0212 9.86384L16.98 9.06934C17.3209 9.02388 17.6678 9.06711 17.9871 9.19484L23.2767 11.3107C24.2486 11.6994 24.7563 12.7718 24.4411 13.7699L22 21.5L25.1684 23.7632C25.381 23.915 25.5257 24.144 25.5716 24.4011L27.6629 36.1121C27.8513 37.1673 27.1743 38.1835 26.1279 38.416L25.4944 38.5568C24.3998 38.8 23.3192 38.0961 23.0993 36.9967L21 26.5L14.7464 22.3309C14.0076 21.8384 13.682 20.9177 13.9468 20.0703Z" fill="#529A51" stroke="black" stroke-width="0.6"/>
<rect y="3" width="15" height="1" rx="0.5" fill="black"/>
<rect y="9" width="6" height="1" rx="0.5" fill="black"/>
<rect y="15" width="4" height="1" rx="0.5" fill="black"/>
<rect y="22" width="10" height="1" rx="0.5" fill="black"/>
<rect y="28" width="3" height="1" rx="0.5" fill="black"/>
</svg>
