<svg width="40" height="40" viewBox="0 0 40 40" fill="none" xmlns="http://www.w3.org/2000/svg">
<path d="M16.6019 37.2204L10.2757 9.22038C10.1344 8.59495 10.6099 8 11.2511 8H37C38.1046 8 39 8.89543 39 10V36C39 37.1046 38.1046 38 37 38H17.5774C17.11 38 16.7049 37.6763 16.6019 37.2204Z" fill="#FF9000" stroke="black" stroke-width="0.6"/>
<path d="M1 28.5V4C1 2.89543 1.89543 2 3 2H14.3916C15.8874 2 17.1546 3.1018 17.3625 4.58303L21 30.5H3C1.89543 30.5 1 29.6046 1 28.5Z" fill="#FEB954" stroke="black" stroke-width="0.6"/>
<path d="M16.7034 37.5686L14.6779 30.8574C14.6391 30.729 14.7353 30.5996 14.8694 30.5996H20.9458C21.1015 30.5996 21.1975 30.7697 21.117 30.903L17.0661 37.6142C16.9765 37.7626 16.7534 37.7346 16.7034 37.5686Z" fill="white" stroke="black" stroke-width="0.6"/>
<path d="M7.19336 20H6.24121L9.58008 10.8086H10.5576L13.8965 20H12.9443L11.9795 17.2705H8.1582L7.19336 20ZM8.4502 16.4707H11.7002L10.1006 11.9766H10.0371L8.4502 16.4707Z" fill="black"/>
<path d="M31.8525 17.3311V20.4785H33.292V21.1875H31.8525V24.4854H31.0146V17.3311H31.8525ZM30.1016 18.502V19.1895H24.4082V18.502H26.8359V17.3311H27.6738V18.502H30.1016ZM27.2549 19.7158C28.6191 19.7158 29.543 20.4141 29.5537 21.499C29.543 22.5732 28.6191 23.2607 27.2549 23.2607C25.8799 23.2607 24.9453 22.5732 24.9561 21.499C24.9453 20.4141 25.8799 19.7158 27.2549 19.7158ZM27.2549 20.3818C26.3525 20.3818 25.751 20.8223 25.7617 21.499C25.751 22.1758 26.3525 22.6055 27.2549 22.5947C28.1465 22.6055 28.748 22.1758 28.7588 21.499C28.748 20.8223 28.1465 20.3818 27.2549 20.3818ZM32.293 25.957V26.666H25.8799V23.916H26.707V25.957H32.293Z" fill="black"/>
</svg>
