<svg width="18" height="18" viewBox="0 0 18 18" fill="none" xmlns="http://www.w3.org/2000/svg">
<g clip-path="url(#clip0_2705_22827)">
<mask id="mask0_2705_22827" style="mask-type:luminance" maskUnits="userSpaceOnUse" x="0" y="0" width="18" height="18">
<path d="M17.6676 7.36364H9.28125V10.8409H14.1085C13.6585 13.05 11.7767 14.3182 9.28125 14.3182C6.3358 14.3182 3.96307 11.9455 3.96307 9C3.96307 6.05455 6.3358 3.68182 9.28125 3.68182C10.5494 3.68182 11.6949 4.13182 12.5949 4.86818L15.2131 2.25C13.6176 0.859091 11.5722 0 9.28125 0C4.29034 0 0.28125 4.00909 0.28125 9C0.28125 13.9909 4.29034 18 9.28125 18C13.7813 18 17.8722 14.7273 17.8722 9C17.8722 8.46818 17.7903 7.89546 17.6676 7.36364Z" fill="white"/>
</mask>
<g mask="url(#mask0_2705_22827)">
<path d="M-0.536987 14.318V3.68164L6.41756 8.99982L-0.536987 14.318Z" fill="#FBBC05"/>
</g>
<mask id="mask1_2705_22827" style="mask-type:luminance" maskUnits="userSpaceOnUse" x="0" y="0" width="18" height="18">
<path d="M17.6676 7.36364H9.28125V10.8409H14.1085C13.6585 13.05 11.7767 14.3182 9.28125 14.3182C6.3358 14.3182 3.96307 11.9455 3.96307 9C3.96307 6.05455 6.3358 3.68182 9.28125 3.68182C10.5494 3.68182 11.6949 4.13182 12.5949 4.86818L15.2131 2.25C13.6176 0.859091 11.5722 0 9.28125 0C4.29034 0 0.28125 4.00909 0.28125 9C0.28125 13.9909 4.29034 18 9.28125 18C13.7813 18 17.8722 14.7273 17.8722 9C17.8722 8.46818 17.7903 7.89546 17.6676 7.36364Z" fill="white"/>
</mask>
<g mask="url(#mask1_2705_22827)">
<path d="M-0.536987 3.68164L6.41756 8.99983L9.2812 6.50437L19.0994 4.90892V-0.818359H-0.536987V3.68164Z" fill="#EA4335"/>
</g>
<mask id="mask2_2705_22827" style="mask-type:luminance" maskUnits="userSpaceOnUse" x="0" y="0" width="18" height="18">
<path d="M17.6676 7.36364H9.28125V10.8409H14.1085C13.6585 13.05 11.7767 14.3182 9.28125 14.3182C6.3358 14.3182 3.96307 11.9455 3.96307 9C3.96307 6.05455 6.3358 3.68182 9.28125 3.68182C10.5494 3.68182 11.6949 4.13182 12.5949 4.86818L15.2131 2.25C13.6176 0.859091 11.5722 0 9.28125 0C4.29034 0 0.28125 4.00909 0.28125 9C0.28125 13.9909 4.29034 18 9.28125 18C13.7813 18 17.8722 14.7273 17.8722 9C17.8722 8.46818 17.7903 7.89546 17.6676 7.36364Z" fill="white"/>
</mask>
<g mask="url(#mask2_2705_22827)">
<path d="M-0.536987 14.318L11.7357 4.90892L14.9676 5.31801L19.0994 -0.818359V18.818H-0.536987V14.318Z" fill="#34A853"/>
</g>
<mask id="mask3_2705_22827" style="mask-type:luminance" maskUnits="userSpaceOnUse" x="0" y="0" width="18" height="18">
<path d="M17.6676 7.36364H9.28125V10.8409H14.1085C13.6585 13.05 11.7767 14.3182 9.28125 14.3182C6.3358 14.3182 3.96307 11.9455 3.96307 9C3.96307 6.05455 6.3358 3.68182 9.28125 3.68182C10.5494 3.68182 11.6949 4.13182 12.5949 4.86818L15.2131 2.25C13.6176 0.859091 11.5722 0 9.28125 0C4.29034 0 0.28125 4.00909 0.28125 9C0.28125 13.9909 4.29034 18 9.28125 18C13.7813 18 17.8722 14.7273 17.8722 9C17.8722 8.46818 17.7903 7.89546 17.6676 7.36364Z" fill="white"/>
</mask>
<g mask="url(#mask3_2705_22827)">
<path d="M19.0994 18.818L6.41761 8.99982L4.78125 7.77255L19.0994 3.68164V18.818Z" fill="#4285F4"/>
</g>
</g>
<defs>
<clipPath id="clip0_2705_22827">
<rect width="18" height="18" fill="white"/>
</clipPath>
</defs>
</svg>
