<svg width="36" height="38" viewBox="0 0 36 38" fill="none" xmlns="http://www.w3.org/2000/svg">
<rect x="0.3" y="0.899609" width="30.4" height="36.4" rx="2.7" fill="white" stroke="black" stroke-width="0.6"/>
<circle cx="27" cy="25.5996" r="8.7" fill="#FF5B59" stroke="black" stroke-width="0.6"/>
<path d="M23.0098 29.5996H22.2041L25.0293 21.8223H25.8564L28.6816 29.5996H27.876L27.0596 27.29H23.8262L23.0098 29.5996ZM24.0732 26.6133H26.8232L25.4697 22.8105H25.416L24.0732 26.6133Z" fill="black"/>
<path d="M29.7734 25.043V23.1484H27.8887V22.5137H29.7734V20.6289H30.4082V22.5137H32.3027V23.1484H30.4082V25.043H29.7734Z" fill="black"/>
<rect x="4.4" y="4.99961" width="9.2" height="4.2" rx="1.4" fill="#FFB9B9" stroke="black" stroke-width="0.8"/>
<rect x="4.4" y="12.2994" width="9.2" height="4.2" rx="1.4" fill="#FFB9B9" stroke="black" stroke-width="0.8"/>
<rect x="4.4" y="19.5992" width="9.2" height="4.2" rx="1.4" fill="#FFB9B9" stroke="black" stroke-width="0.8"/>
<rect x="4.4" y="26.9" width="9.2" height="4.2" rx="1.4" fill="#FFB9B9" stroke="black" stroke-width="0.8"/>
</svg>
