<svg width="17" height="18" viewBox="0 0 17 18" fill="none" xmlns="http://www.w3.org/2000/svg">
<path d="M8.38542 5.88623C7.72417 5.88623 7.1875 6.4229 7.1875 7.08415V7.18669C7.1875 7.37731 7.11177 7.56013 6.97698 7.69492C6.84219 7.82971 6.65937 7.90544 6.46875 7.90544C6.27813 7.90544 6.09531 7.82971 5.96052 7.69492C5.82573 7.56013 5.75 7.37731 5.75 7.18669V7.08415C5.75 6.38519 6.02766 5.71486 6.5219 5.22063C7.01613 4.72639 7.68646 4.44873 8.38542 4.44873H8.49658C9.01214 4.44897 9.51526 4.60706 9.93829 4.90176C10.3613 5.19645 10.684 5.61361 10.8629 6.09714C11.0417 6.58066 11.0683 7.10737 10.9389 7.60643C10.8095 8.10549 10.5304 8.55297 10.1392 8.88869L9.40125 9.52119C9.30867 9.60155 9.23429 9.70073 9.18306 9.81211C9.13183 9.92349 9.10494 10.0445 9.10417 10.1671V10.6779C9.10417 10.8685 9.02844 11.0513 8.89365 11.1861C8.75886 11.3209 8.57604 11.3966 8.38542 11.3966C8.19479 11.3966 8.01198 11.3209 7.87718 11.1861C7.74239 11.0513 7.66667 10.8685 7.66667 10.6779V10.1671C7.66667 9.49915 7.958 8.86473 8.46496 8.43061L9.20383 7.79811C9.37243 7.6536 9.49271 7.46091 9.54849 7.24598C9.60427 7.03105 9.59287 6.80419 9.51584 6.59594C9.4388 6.38768 9.29981 6.20802 9.11758 6.08113C8.93536 5.95425 8.71863 5.88623 8.49658 5.88623H8.38542ZM8.38542 13.7925C8.63958 13.7925 8.88334 13.6915 9.06306 13.5118C9.24278 13.3321 9.34375 13.0883 9.34375 12.8341C9.34375 12.58 9.24278 12.3362 9.06306 12.1565C8.88334 11.9768 8.63958 11.8758 8.38542 11.8758C8.13125 11.8758 7.8875 11.9768 7.70777 12.1565C7.52805 12.3362 7.42708 12.58 7.42708 12.8341C7.42708 13.0883 7.52805 13.3321 7.70777 13.5118C7.8875 13.6915 8.13125 13.7925 8.38542 13.7925Z" fill="#C3C3C3"/>
<path d="M0 9.00016C0 6.77621 0.883461 4.64335 2.45603 3.07078C4.0286 1.49821 6.16147 0.614746 8.38542 0.614746C10.6094 0.614746 12.7422 1.49821 14.3148 3.07078C15.8874 4.64335 16.7708 6.77621 16.7708 9.00016C16.7708 11.2241 15.8874 13.357 14.3148 14.9295C12.7422 16.5021 10.6094 17.3856 8.38542 17.3856C6.16147 17.3856 4.0286 16.5021 2.45603 14.9295C0.883461 13.357 0 11.2241 0 9.00016ZM8.38542 2.05225C7.473 2.05225 6.56952 2.23196 5.72656 2.58112C4.8836 2.93029 4.11767 3.44207 3.4725 4.08724C2.82732 4.73242 2.31554 5.49835 1.96638 6.34131C1.61721 7.18427 1.4375 8.08775 1.4375 9.00016C1.4375 9.91258 1.61721 10.8161 1.96638 11.659C2.31554 12.502 2.82732 13.2679 3.4725 13.9131C4.11767 14.5583 4.8836 15.07 5.72656 15.4192C6.56952 15.7684 7.473 15.9481 8.38542 15.9481C10.2281 15.9481 11.9953 15.2161 13.2983 13.9131C14.6013 12.6101 15.3333 10.8429 15.3333 9.00016C15.3333 7.15746 14.6013 5.39023 13.2983 4.08724C11.9953 2.78426 10.2281 2.05225 8.38542 2.05225Z" fill="#C3C3C3"/>
</svg>
