<svg width="195" height="60" viewBox="0 0 195 60" fill="none" xmlns="http://www.w3.org/2000/svg">
<path d="M0 18.0029H10.6438V48.0029H22.7066L21.0146 57.2757H0V18.0029ZM34.9974 43.912C34.9974 45.8394 35.2157 47.2393 35.6524 48.112C36.0891 48.9485 36.7804 49.3666 37.7266 49.3666C38.7091 49.3666 39.4004 48.9485 39.8007 48.112C40.2374 47.2393 40.4557 45.8394 40.4557 43.912V18.0029H51.0995V43.4211C51.0995 48.4756 50.0078 52.1484 47.8245 54.4393C45.6411 56.6939 42.275 57.8211 37.7266 57.8211C33.2141 57.8211 29.8483 56.6939 27.6286 54.4393C25.4453 52.1484 24.3536 48.4756 24.3536 43.4211V18.0029H34.9974V43.912ZM67.0676 18.0029L74.7638 40.4211V18.0029H85.1346V57.2757H72.3621L65.3755 36.8757V57.2757H55.0046V23.6211L52.7667 18.0029H67.0676Z" fill="#F56156"/>
<path d="M88.666 37.9119C88.666 32.7483 89.2664 28.6937 90.4673 25.7482C91.6681 22.7664 93.4694 20.6573 95.871 19.421C98.309 18.1846 101.329 17.5664 104.932 17.5664C106.096 17.5664 107.424 17.6391 108.916 17.7846C110.445 17.8937 111.919 18.1119 113.338 18.4391V32.8391H106.733L105.86 26.2391C104.877 26.2391 104.022 26.3664 103.294 26.621C102.603 26.8391 102.021 27.33 101.548 28.0937C101.075 28.8573 100.711 30.021 100.456 31.5846C100.238 33.1481 100.129 35.2391 100.129 37.8573C100.129 40.6937 100.438 42.93 101.056 44.5664C101.675 46.1665 102.603 47.3119 103.84 48.0028C105.114 48.6573 106.733 48.9846 108.698 48.9846C109.571 48.9846 110.408 48.93 111.209 48.8209C112.009 48.7119 112.865 48.5845 113.774 48.4391V57.0573C112.719 57.3118 111.446 57.4937 109.954 57.6028C108.461 57.7481 107.133 57.8209 105.969 57.8209C99.7464 57.8209 95.3069 56.1483 92.6506 52.8028C89.9943 49.4572 88.666 44.4936 88.666 37.9119ZM117.589 57.2755V18.0028H128.233V33.1119H133.691V18.0028H144.335V57.2755H133.691V41.8391H128.233V57.2755H117.589ZM156.293 57.8209C154.837 57.8209 153.473 57.4574 152.199 56.73C150.925 55.9664 149.888 54.8755 149.088 53.4573C148.287 52.0391 147.887 50.3299 147.887 48.33C147.887 45.2027 148.978 42.8392 151.162 41.2391C153.382 39.639 156.238 38.8391 159.731 38.8391H162.078V35.8391C162.078 34.7845 161.715 34.0754 160.987 33.7119C160.259 33.3118 159.331 33.1119 158.203 33.1119C156.82 33.1119 155.492 33.2392 154.218 33.4937C152.945 33.7481 151.671 34.112 150.398 34.5846V26.9482C152.035 26.5846 153.727 26.2573 155.474 25.9664C157.257 25.6391 159.04 25.4755 160.823 25.4755C162.825 25.4755 164.662 25.73 166.336 26.2391C168.01 26.7119 169.356 27.5845 170.375 28.8573C171.394 30.1301 171.903 31.9481 171.903 34.3119V57.2755H163.388L162.733 54.93C161.824 55.9119 160.805 56.6392 159.677 57.1119C158.549 57.5845 157.421 57.8209 156.293 57.8209ZM160.113 50.6209C160.841 50.6209 161.496 50.2937 162.078 49.6391V44.2391H161.369C160.277 44.2391 159.349 44.5119 158.585 45.0573C157.821 45.5665 157.439 46.3481 157.439 47.4028C157.439 48.4209 157.712 49.221 158.258 49.8028C158.803 50.3482 159.422 50.6209 160.113 50.6209ZM188.285 25.9119H194.235V33.2755H188.285V46.8573C188.285 47.8754 188.54 48.621 189.049 49.0937C189.595 49.5663 190.45 49.8028 191.615 49.8028C192.197 49.8028 192.706 49.7845 193.143 49.7482C193.58 49.6754 193.943 49.6029 194.235 49.53V56.7846C193.361 57.0756 192.433 57.3118 191.451 57.4937C190.505 57.7119 189.54 57.8209 188.558 57.8209C185.21 57.8209 182.681 57.1119 180.971 55.6937C179.297 54.2392 178.46 51.6573 178.46 47.9482V33.2755H174.366V25.9119H178.46V19.0391H188.285V25.9119Z" fill="black"/>
<path d="M159.394 38.1846C165.95 38.1846 171.266 42.7641 171.266 48.4131C171.266 54.0624 165.95 58.6416 159.394 58.6416C158.217 58.6443 157.046 58.4947 155.909 58.1953C155.044 58.6279 153.053 59.4576 149.706 59.998C149.411 60.0446 149.184 59.7403 149.302 59.4688C149.827 58.2472 150.301 56.6193 150.445 55.1348C148.624 53.3375 147.522 50.9849 147.522 48.4131C147.523 42.7642 152.837 38.1847 159.394 38.1846ZM160.622 43.6396C158.361 43.6396 156.528 45.4712 156.528 47.7305C156.528 49.9897 158.361 51.8213 160.622 51.8213H161.986V43.6396H160.622Z" fill="black"/>
<path d="M35.0804 9.64578C35.0804 11.4112 34.7564 12.8935 34.1082 14.0928C33.4601 15.2921 32.5957 16.117 31.5155 16.5675L32.283 31.5613C32.3059 31.8779 32.2147 32.1517 32.0101 32.3833C31.8054 32.6146 31.5554 32.7302 31.2595 32.7302H27.9845C27.689 32.7302 27.4387 32.6146 27.234 32.3833C27.0293 32.1517 26.9384 31.8779 26.9611 31.5613L27.7288 16.5675C26.6486 16.117 25.7843 15.2921 25.1361 14.0928C24.4879 12.8935 24.1637 11.4112 24.1637 9.64578C24.1637 8.08736 24.4055 6.56848 24.8888 5.08918C25.3722 3.60986 26.04 2.39234 26.8929 1.43658C27.7457 0.480811 28.6556 0.00292969 29.622 0.00292969C30.5887 0.00292969 31.4983 0.480811 32.3512 1.43658C33.2041 2.39234 33.8722 3.60986 34.3555 5.08918C34.8388 6.56848 35.0804 8.08736 35.0804 9.64578Z" fill="#F56156"/>
<path d="M42.9601 7.3155e-06C43.1066 7.3155e-06 43.248 0.0588242 43.3517 0.162472C43.4554 0.266114 43.5144 0.407429 43.5144 0.553984V11.8759C43.5127 11.9508 43.54 12.024 43.5916 12.0783C43.6432 12.1323 43.7144 12.1641 43.7889 12.1662C43.8637 12.1679 43.9371 12.1402 43.9914 12.089C44.0458 12.0371 44.0777 11.9643 44.0793 11.8892L44.5965 0.52735C44.6033 0.385035 44.6636 0.249855 44.7671 0.151818C44.8705 0.0537984 45.0083 -0.000726675 45.1508 7.3155e-06H46.305C46.4471 -0.000156457 46.5858 0.0538436 46.6887 0.151818C46.7916 0.249796 46.8524 0.385417 46.8593 0.52735L47.3737 11.8892C47.3753 11.9643 47.4073 12.0371 47.4616 12.089C47.5159 12.1406 47.5893 12.168 47.6641 12.1662C47.7391 12.1644 47.8095 12.1324 47.8614 12.0783C47.9133 12.024 47.943 11.951 47.9414 11.8759V0.553984C47.9414 0.407786 47.9981 0.266056 48.1013 0.162472C48.2042 0.0592245 48.3445 0.00083921 48.4905 7.3155e-06H49.1326C49.4099 0.000136332 49.6777 0.105468 49.8815 0.292976C50.0851 0.480184 50.2098 0.736741 50.2333 1.01208L51.1716 12.2221C51.2382 13.02 51.0442 13.8185 50.6225 14.4993C50.2008 15.1797 49.5729 15.7078 48.8289 16.0041L48.7115 16.052C48.3226 16.2064 47.9897 16.4775 47.7601 16.8271C47.5306 17.1768 47.4138 17.5889 47.4269 18.0069L47.872 33.1614C47.872 33.7306 47.6458 34.2768 47.243 34.6794C46.8401 35.0819 46.2935 35.308 45.7239 35.308C45.1541 35.308 44.6077 35.0819 44.2046 34.6794C43.8018 34.2768 43.5758 33.7308 43.5758 33.1614L44.0234 18.0069C44.0367 17.5889 43.9199 17.1768 43.6904 16.8271C43.4606 16.4774 43.1279 16.2064 42.7388 16.052L42.6217 16.0041C41.8772 15.7078 41.247 15.1803 40.8253 14.4993C40.4034 13.8179 40.2115 13.0179 40.279 12.2195L41.217 1.01208C41.2404 0.736439 41.3676 0.480261 41.5715 0.292976C41.7756 0.105493 42.0434 0.000136321 42.3204 7.3155e-06H42.9601Z" fill="#F56156"/>
</svg>
