<svg width="101" height="29" viewBox="0 0 101 29" fill="none" xmlns="http://www.w3.org/2000/svg">
<g clip-path="url(#clip0_394_10771)">
<path d="M2.62079 8.70117H7.87279V23.2012H13.825L12.9901 27.683H2.62079V8.70117ZM19.8897 21.2239C19.8897 22.1554 19.9975 22.8321 20.2129 23.2539C20.4284 23.6581 20.7695 23.8603 21.2364 23.8603C21.7212 23.8603 22.0623 23.6581 22.2599 23.2539C22.4753 22.8321 22.5831 22.1554 22.5831 21.2239V8.70117H27.8351V20.9867C27.8351 23.4296 27.2964 25.2048 26.2191 26.3121C25.1417 27.4017 23.4807 27.9467 21.2364 27.9467C19.0098 27.9467 17.349 27.4017 16.2537 26.3121C15.1764 25.2048 14.6377 23.4296 14.6377 20.9867V8.70117H19.8897V21.2239ZM35.7143 8.70117L39.5119 19.5367V8.70117H44.6292V27.683H38.3268L34.8793 17.823V27.683H29.762V11.4166L28.6577 8.70117H35.7143Z" fill="#F56156"/>
<path d="M46.3716 18.3239C46.3716 15.8281 46.6679 13.8684 47.2604 12.4448C47.853 11.0036 48.7418 9.98417 49.9268 9.3866C51.1298 8.78901 52.6202 8.49023 54.3978 8.49023C54.9724 8.49023 55.6277 8.52538 56.3639 8.59569C57.118 8.64842 57.8452 8.75387 58.5455 8.91205V15.8721H55.2866L54.8556 12.6821C54.3708 12.6821 53.9489 12.7436 53.5898 12.8666C53.2487 12.9721 52.9613 13.2094 52.7279 13.5784C52.4945 13.9475 52.3149 14.5099 52.1892 15.2657C52.0815 16.0214 52.0276 17.0321 52.0276 18.2975C52.0276 19.6684 52.1802 20.7494 52.4855 21.5403C52.7908 22.3135 53.2487 22.8671 53.8591 23.2012C54.4876 23.5175 55.2866 23.6757 56.2562 23.6757C56.6871 23.6757 57.1001 23.6494 57.4951 23.5966C57.8901 23.5439 58.3121 23.4823 58.761 23.4121V27.5775C58.2402 27.7005 57.6119 27.7884 56.8756 27.8412C56.1394 27.9114 55.4841 27.9466 54.9095 27.9466C51.8391 27.9466 49.6485 27.1381 48.3378 25.5212C47.0271 23.9042 46.3716 21.5051 46.3716 18.3239ZM60.6432 27.683V8.70114H65.8952V16.0039H68.5885V8.70114H73.8405V27.683H68.5885V20.2221H65.8952V27.683H60.6432ZM79.741 27.9466C79.0228 27.9466 78.3495 27.7708 77.721 27.4194C77.0926 27.0503 76.5809 26.523 76.1858 25.8375C75.7908 25.1521 75.5932 24.326 75.5932 23.3594C75.5932 21.8478 76.1319 20.7053 77.2092 19.9321C78.3046 19.1587 79.714 18.7721 81.4378 18.7721H82.5959V17.3221C82.5959 16.8123 82.4164 16.4696 82.0572 16.2939C81.6982 16.1005 81.2403 16.0039 80.6836 16.0039C80.0014 16.0039 79.346 16.0653 78.7175 16.1884C78.0891 16.3114 77.4607 16.4871 76.8322 16.7157V13.0248C77.6402 12.849 78.4751 12.6908 79.337 12.5502C80.2169 12.3921 81.0967 12.313 81.9764 12.313C82.9641 12.313 83.8708 12.436 84.6967 12.6821C85.5227 12.9105 86.187 13.3323 86.6898 13.9475C87.1926 14.5626 87.4439 15.4414 87.4439 16.5839V27.683H83.2423L82.9191 26.5494C82.4703 27.0239 81.9675 27.3753 81.4108 27.6039C80.8543 27.8323 80.2977 27.9466 79.741 27.9466ZM81.6263 24.4666C81.9855 24.4666 82.3087 24.3084 82.5959 23.9921V21.3821H82.2458C81.7071 21.3821 81.2492 21.5139 80.8722 21.7775C80.4951 22.0235 80.3066 22.4014 80.3066 22.9112C80.3066 23.4032 80.4412 23.7899 80.7106 24.0712C80.9799 24.3348 81.2852 24.4666 81.6263 24.4666ZM95.5271 12.5239H98.4629V16.083H95.5271V22.6475C95.5271 23.1396 95.6528 23.4999 95.9042 23.7284C96.1735 23.9569 96.5954 24.0712 97.1701 24.0712C97.4573 24.0712 97.7087 24.0623 97.9242 24.0448C98.1397 24.0096 98.3192 23.9744 98.4629 23.9394V27.4457C98.0319 27.5862 97.5741 27.7005 97.0893 27.7884C96.6224 27.8939 96.1466 27.9466 95.6618 27.9466C94.0098 27.9466 92.7619 27.6039 91.9181 26.9184C91.092 26.2153 90.6791 24.9675 90.6791 23.1748V16.083H88.6591V12.5239H90.6791V9.20205H95.5271V12.5239Z" fill="black"/>
<path d="M81.2713 28.3437C84.5064 28.3437 87.1293 26.1302 87.1293 23.3999C87.1293 20.6694 84.5064 18.4561 81.2713 18.4561C78.0362 18.4561 75.4133 20.6694 75.4133 23.3999C75.4133 24.6429 75.9574 25.78 76.8559 26.6487C76.7848 27.3663 76.5505 28.153 76.2914 28.7435C76.2335 28.8748 76.3455 29.0218 76.4912 28.9991C78.1432 28.7379 79.1251 28.3366 79.552 28.1277C80.1128 28.2724 80.6909 28.3451 81.2713 28.3437Z" fill="black"/>
<path d="M79.8573 23.0691C79.8573 21.977 80.7617 21.0918 81.8773 21.0918H82.5506V25.0463H81.8773C80.7617 25.0463 79.8573 24.1611 79.8573 23.0691Z" fill="white"/>
<path d="M19.9307 4.66169C19.9307 5.51498 19.7708 6.23145 19.451 6.81109C19.1312 7.39074 18.7047 7.78943 18.1717 8.00717L18.5503 15.2542C18.5617 15.4073 18.5167 15.5396 18.4157 15.6514C18.3147 15.7633 18.1913 15.8192 18.0453 15.8192H16.4293C16.2835 15.8192 16.16 15.7633 16.059 15.6514C15.958 15.5396 15.9132 15.4073 15.9243 15.2542L16.3032 8.00717C15.7701 7.78943 15.3437 7.39074 15.0238 6.81109C14.704 6.23145 14.544 5.51498 14.544 4.66169C14.544 3.90844 14.6633 3.17432 14.9018 2.45932C15.1403 1.74433 15.4698 1.15586 15.8907 0.693905C16.3115 0.231953 16.7605 0.000976562 17.2373 0.000976562C17.7143 0.000976562 18.1632 0.231953 18.584 0.693905C19.0048 1.15586 19.3345 1.74433 19.573 2.45932C19.8115 3.17432 19.9307 3.90844 19.9307 4.66169Z" fill="#F56156"/>
<path d="M23.8187 3.53023e-06C23.8911 3.53023e-06 23.9608 0.0284316 24.012 0.078528C24.0632 0.128618 24.0923 0.196943 24.0923 0.26776V5.74001C24.0914 5.77625 24.1049 5.81161 24.1304 5.83784C24.1558 5.86397 24.1908 5.87934 24.2277 5.88033C24.2646 5.88117 24.3008 5.86779 24.3276 5.843C24.3544 5.81795 24.3702 5.78273 24.371 5.74645L24.6262 0.254886C24.6296 0.1861 24.6593 0.120763 24.7104 0.0733788C24.7614 0.0260297 24.8294 -0.000351129 24.8997 3.53023e-06H25.4692C25.5394 -7.56331e-05 25.6078 0.026023 25.6586 0.0733788C25.7093 0.120731 25.7394 0.186303 25.7427 0.254886L25.9966 5.74645C25.9974 5.78273 26.0131 5.81795 26.0399 5.843C26.0667 5.86791 26.103 5.88117 26.1399 5.88033C26.1769 5.87943 26.2116 5.86401 26.2372 5.83784C26.2628 5.8116 26.2775 5.77629 26.2767 5.74001V0.26776C26.2767 0.197097 26.3047 0.128594 26.3556 0.078528C26.4064 0.0286326 26.4756 0.000383822 26.5476 3.53023e-06H26.8645C27.0013 6.58877e-05 27.1334 0.0509763 27.234 0.141606C27.3344 0.232087 27.396 0.356109 27.4076 0.489172L27.8692 5.90737C27.9021 6.29305 27.8077 6.6789 27.5996 7.00799C27.3916 7.33704 27.0806 7.59216 26.7133 7.73531L26.6554 7.75847C26.4637 7.8331 26.3004 7.96426 26.1873 8.13308C26.074 8.30211 26.0164 8.5013 26.0228 8.70335L26.2425 16.028C26.2425 16.3031 26.1308 16.5672 25.9321 16.7617C25.7333 16.9563 25.4636 17.0656 25.1825 17.0656C24.9015 17.0656 24.6317 16.9563 24.4328 16.7617C24.2341 16.5672 24.1225 16.3031 24.1225 16.028L24.3434 8.70335C24.35 8.50132 24.2924 8.30209 24.1791 8.13308C24.0657 7.96406 23.9016 7.8331 23.7095 7.75847L23.6518 7.73531C23.2842 7.59211 22.9734 7.33716 22.7654 7.00799C22.5572 6.67863 22.4625 6.29199 22.4958 5.90607L22.9586 0.489172C22.9702 0.355949 23.033 0.232123 23.1336 0.141606C23.234 0.0511441 23.3653 0.000208586 23.5017 3.53023e-06H23.8187Z" fill="#F56156"/>
</g>
<defs>
<clipPath id="clip0_394_10771">
<rect width="101" height="29" fill="white"/>
</clipPath>
</defs>
</svg>
