<svg width="20" height="29" viewBox="0 0 20 29" fill="none" xmlns="http://www.w3.org/2000/svg">
<path d="M12.7599 19.8813H7.29135C7.29135 14.4591 10.2079 12.6517 12.213 11.5673C12.9421 11.2058 13.489 10.8444 13.8536 10.4829C14.765 9.57918 14.4004 8.314 14.2181 7.95253C13.6713 6.68735 12.3953 5.42218 10.0256 5.42218C6.19765 5.42218 5.46851 8.85622 5.46851 9.57918L0 8.85622C0.364568 5.78366 3.09882 0 10.0256 0C14.2181 0 17.8638 2.34961 19.3221 5.78366C20.5981 8.85622 20.0512 12.1095 17.8638 14.2784C16.9524 15.1821 15.8587 15.7243 14.9473 16.2665C13.3067 17.1702 12.7599 18.0739 12.7599 19.8813ZM13.6713 25.3035C13.6823 25.7849 13.5961 26.2636 13.418 26.7115C13.2398 27.1594 12.9732 27.5675 12.6337 27.9119C12.2943 28.2562 11.8889 28.5298 11.4413 28.7167C10.9938 28.9036 10.5131 28.9999 10.0275 29C9.54183 29.0001 9.06109 28.904 8.61343 28.7174C8.16578 28.5308 7.76024 28.2573 7.42064 27.9132C7.08103 27.569 6.81419 27.161 6.63579 26.7132C6.45739 26.2653 6.37102 25.7867 6.38175 25.3053C6.40282 24.3608 6.79595 23.4621 7.47699 22.8014C8.15802 22.1407 9.07285 21.7707 10.0256 21.7704C10.9784 21.7702 11.8934 22.1398 12.5748 22.8001C13.2562 23.4605 13.6497 24.359 13.6713 25.3035Z" fill="black"/>
</svg>
