<svg width="35" height="35" viewBox="0 0 35 35" fill="none" xmlns="http://www.w3.org/2000/svg">
<circle cx="16.9381" cy="9.46912" r="7.11912" fill="#FEE8D0" stroke="black" stroke-width="0.7"/>
<path d="M30.5171 32.9435H3.35934C2.63754 32.9435 2.07908 32.3109 2.16861 31.5946L2.36267 30.0421C2.47625 29.1335 2.68515 28.2394 2.98591 27.3745C4.71447 22.4038 9.40026 19.0723 14.6629 19.0723H18.6798C23.9403 19.0723 28.6823 22.2425 30.6929 27.1036L31.343 28.6754L31.7079 31.5946C31.7974 32.3109 31.2389 32.9435 30.5171 32.9435Z" fill="#F56156" stroke="black" stroke-width="0.7"/>
<path d="M12.5361 26.3047V16.3047C12.5361 15.4763 13.2077 14.8047 14.0361 14.8047H32.0361C32.8646 14.8047 33.5361 15.4763 33.5361 16.3047V26.3047C33.5361 27.1331 32.8646 27.8047 32.0361 27.8047H14.0361C13.2077 27.8047 12.5361 27.1331 12.5361 26.3047Z" fill="white" stroke="black" stroke-width="0.7"/>
<path d="M13 27L19 20" stroke="black" stroke-width="0.7"/>
<path d="M27 20L33 27" stroke="black" stroke-width="0.7"/>
<path d="M13 15L23 24L33 15" stroke="black" stroke-width="0.7"/>
</svg>
