<svg width="35" height="35" viewBox="0 0 35 35" fill="none" xmlns="http://www.w3.org/2000/svg">
<path d="M3.521 14.3042V4.5C3.521 3.67157 4.19257 3 5.021 3H20.1603C20.9887 3 21.6603 3.67157 21.6603 4.5V14.3042C21.6603 15.1326 20.9887 15.8042 20.1603 15.8042H5.021C4.19257 15.8042 3.521 15.1326 3.521 14.3042Z" fill="white" stroke="black" stroke-width="0.7"/>
<path d="M3.521 14.7374L9.9231 9.40234" stroke="black" stroke-width="0.7"/>
<path d="M15.2583 9.40234L21.6604 14.7374" stroke="black" stroke-width="0.7"/>
<path d="M3.521 4.06641L12.5906 11.5355L21.6603 4.06641" stroke="black" stroke-width="0.7"/>
<rect x="0.35" y="21.5492" width="3.88817" height="9.97017" rx="1.15" fill="#F56156" stroke="black" stroke-width="0.7"/>
<path d="M23.7944 10.8027V8.0017C23.7944 7.89124 23.884 7.8017 23.9944 7.8017H27.529V6.60117C27.529 6.43636 27.7171 6.34229 27.849 6.44117L31.1571 8.92222C31.4771 9.16222 31.4771 9.64222 31.1571 9.88222L27.849 12.3633C27.7171 12.4622 27.529 12.3681 27.529 12.2033V11.0027H23.9944C23.884 11.0027 23.7944 10.9132 23.7944 10.8027Z" fill="#F56156" stroke="black" stroke-width="0.7"/>
<path d="M9.22179 19.5289L4.30005 22.8V30.6L8.33721 30.1155C8.97318 30.0392 9.61788 30.0858 10.2363 30.2528L19.4489 32.7402C20.0549 32.9038 20.7025 32.7735 21.198 32.3882L33.3179 22.9637C33.9026 22.509 34.1252 21.7279 33.868 21.0334C33.5094 20.0652 32.3771 19.6384 31.4687 20.1289L24.3 24V23.0227C24.3 22.5447 23.9618 22.1336 23.4927 22.0415L18.1889 21L14.0412 19.1335C12.4736 18.4281 10.6535 18.5774 9.22179 19.5289Z" fill="#FEE8D0"/>
<path d="M24.3 24V23.0227C24.3 22.5447 23.9618 22.1336 23.4927 22.0415L18.1889 21L14.0412 19.1335C12.4736 18.4281 10.6535 18.5774 9.22179 19.5289L4.30005 22.8V30.6L8.33721 30.1155C8.97318 30.0392 9.61788 30.0858 10.2363 30.2528L19.4489 32.7402C20.0549 32.9038 20.7025 32.7735 21.198 32.3882L33.3179 22.9637C33.9026 22.509 34.1252 21.7279 33.868 21.0334V21.0334C33.5094 20.0652 32.3771 19.6384 31.4687 20.1289L24.3 24ZM24.3 24L22.2815 24.872C21.7807 25.0884 21.2408 25.2 20.6952 25.2H14.8556" stroke="black" stroke-width="0.7"/>
</svg>
