<svg width="15" height="16" viewBox="0 0 15 16" fill="none" xmlns="http://www.w3.org/2000/svg">
<path d="M7.5 16C8.01608 16.0006 8.51955 15.8469 8.94041 15.5601C9.36127 15.2734 9.67861 14.8679 9.84833 14.4H5.15167C5.32138 14.8679 5.63873 15.2734 6.05959 15.5601C6.48045 15.8469 6.98392 16.0006 7.5 16ZM13.3333 10.0688V6.4C13.3333 3.8264 11.5125 1.6584 9.04583 1.0064C8.80167 0.416 8.205 0 7.5 0C6.795 0 6.19833 0.416 5.95417 1.0064C3.4875 1.6592 1.66667 3.8264 1.66667 6.4V10.0688L0.244167 11.4344C0.0878755 11.5844 4.71978e-05 11.7878 0 12V12.8C0 13.0122 0.0877973 13.2157 0.244078 13.3657C0.400358 13.5157 0.61232 13.6 0.833333 13.6H14.1667C14.3877 13.6 14.5996 13.5157 14.7559 13.3657C14.9122 13.2157 15 13.0122 15 12.8V12C15 11.7878 14.9121 11.5844 14.7558 11.4344L13.3333 10.0688Z" fill="#FCC53A"/>
</svg>
