<svg width="61" height="60" viewBox="0 0 61 60" fill="none" xmlns="http://www.w3.org/2000/svg">
<path d="M20.7501 38.9273C29.9456 38.9273 37.4001 31.6546 37.4001 22.6834C37.4001 13.7121 29.9456 6.43945 20.7501 6.43945C11.5546 6.43945 4.1001 13.7121 4.1001 22.6834C4.1001 31.6546 11.5546 38.9273 20.7501 38.9273Z" fill="#FFFFB5" stroke="black" stroke-width="0.8"/>
<path d="M13.1122 42.0001L11.2998 36.1465H31.6999L30.2426 42.0001H13.1122Z" fill="#FFFFB5" stroke="black" stroke-width="0.8"/>
<path d="M12.8572 40L10.5 32H32.5L30.9287 40H12.8572Z" fill="#FFFFB5"/>
<path d="M18.5 34.2441H24.5C25.8255 34.2441 26.8994 35.2918 26.8994 36.585V41.8527H16.1006V36.585C16.1006 35.2918 17.1744 34.2441 18.5 34.2441Z" fill="#D9D9D9" stroke="black" stroke-width="0.8"/>
<path d="M30.5001 45.9512H12.5001C11.1746 45.9512 10.1001 46.9995 10.1001 48.2926V49.7561C10.1001 51.0492 11.1746 52.0975 12.5001 52.0975H30.5001C31.8256 52.0975 32.9001 51.0492 32.9001 49.7561V48.2926C32.9001 46.9995 31.8256 45.9512 30.5001 45.9512Z" fill="#717171"/>
<path d="M30.5001 45.9512H12.5001C11.1746 45.9512 10.1001 46.9995 10.1001 48.2926V49.7561C10.1001 51.0492 11.1746 52.0975 12.5001 52.0975H30.5001C31.8256 52.0975 32.9001 51.0492 32.9001 49.7561V48.2926C32.9001 46.9995 31.8256 45.9512 30.5001 45.9512Z" stroke="black" stroke-width="0.8"/>
<path d="M30.5001 45.9512H12.5001C11.1746 45.9512 10.1001 46.9995 10.1001 48.2926V49.7561C10.1001 51.0492 11.1746 52.0975 12.5001 52.0975H30.5001C31.8256 52.0975 32.9001 51.0492 32.9001 49.7561V48.2926C32.9001 46.9995 31.8256 45.9512 30.5001 45.9512Z" stroke="black" stroke-width="0.8"/>
<path d="M30.5001 45.9512H12.5001C11.1746 45.9512 10.1001 46.9995 10.1001 48.2926V49.7561C10.1001 51.0492 11.1746 52.0975 12.5001 52.0975H30.5001C31.8256 52.0975 32.9001 51.0492 32.9001 49.7561V48.2926C32.9001 46.9995 31.8256 45.9512 30.5001 45.9512Z" stroke="black" stroke-width="0.8"/>
<path d="M30.5001 45.9512H12.5001C11.1746 45.9512 10.1001 46.9995 10.1001 48.2926V49.7561C10.1001 51.0492 11.1746 52.0975 12.5001 52.0975H30.5001C31.8256 52.0975 32.9001 51.0492 32.9001 49.7561V48.2926C32.9001 46.9995 31.8256 45.9512 30.5001 45.9512Z" stroke="black" stroke-width="0.8"/>
<path d="M30.5001 45.9512H12.5001C11.1746 45.9512 10.1001 46.9995 10.1001 48.2926V49.7561C10.1001 51.0492 11.1746 52.0975 12.5001 52.0975H30.5001C31.8256 52.0975 32.9001 51.0492 32.9001 49.7561V48.2926C32.9001 46.9995 31.8256 45.9512 30.5001 45.9512Z" stroke="black" stroke-width="0.8"/>
<path d="M27.5001 52.0977H15.5001C14.1746 52.0977 13.1001 53.146 13.1001 54.4391V55.1708C13.1001 56.464 14.1746 57.5123 15.5001 57.5123H27.5001C28.8256 57.5123 29.9001 56.464 29.9001 55.1708V54.4391C29.9001 53.146 28.8256 52.0977 27.5001 52.0977Z" fill="#717171"/>
<path d="M27.5001 52.0977H15.5001C14.1746 52.0977 13.1001 53.146 13.1001 54.4391V55.1708C13.1001 56.464 14.1746 57.5123 15.5001 57.5123H27.5001C28.8256 57.5123 29.9001 56.464 29.9001 55.1708V54.4391C29.9001 53.146 28.8256 52.0977 27.5001 52.0977Z" stroke="black" stroke-width="0.8"/>
<path d="M27.5001 52.0977H15.5001C14.1746 52.0977 13.1001 53.146 13.1001 54.4391V55.1708C13.1001 56.464 14.1746 57.5123 15.5001 57.5123H27.5001C28.8256 57.5123 29.9001 56.464 29.9001 55.1708V54.4391C29.9001 53.146 28.8256 52.0977 27.5001 52.0977Z" stroke="black" stroke-width="0.8"/>
<path d="M27.5001 52.0977H15.5001C14.1746 52.0977 13.1001 53.146 13.1001 54.4391V55.1708C13.1001 56.464 14.1746 57.5123 15.5001 57.5123H27.5001C28.8256 57.5123 29.9001 56.464 29.9001 55.1708V54.4391C29.9001 53.146 28.8256 52.0977 27.5001 52.0977Z" stroke="black" stroke-width="0.8"/>
<path d="M27.5001 52.0977H15.5001C14.1746 52.0977 13.1001 53.146 13.1001 54.4391V55.1708C13.1001 56.464 14.1746 57.5123 15.5001 57.5123H27.5001C28.8256 57.5123 29.9001 56.464 29.9001 55.1708V54.4391C29.9001 53.146 28.8256 52.0977 27.5001 52.0977Z" stroke="black" stroke-width="0.8"/>
<path d="M27.5001 52.0977H15.5001C14.1746 52.0977 13.1001 53.146 13.1001 54.4391V55.1708C13.1001 56.464 14.1746 57.5123 15.5001 57.5123H27.5001C28.8256 57.5123 29.9001 56.464 29.9001 55.1708V54.4391C29.9001 53.146 28.8256 52.0977 27.5001 52.0977Z" stroke="black" stroke-width="0.8"/>
<path d="M30.5001 40.0977H12.5001C11.1746 40.0977 10.1001 41.146 10.1001 42.4391V43.9025C10.1001 45.1957 11.1746 46.244 12.5001 46.244H30.5001C31.8256 46.244 32.9001 45.1957 32.9001 43.9025V42.4391C32.9001 41.146 31.8256 40.0977 30.5001 40.0977Z" fill="#717171"/>
<path d="M30.5001 40.0977H12.5001C11.1746 40.0977 10.1001 41.146 10.1001 42.4391V43.9025C10.1001 45.1957 11.1746 46.244 12.5001 46.244H30.5001C31.8256 46.244 32.9001 45.1957 32.9001 43.9025V42.4391C32.9001 41.146 31.8256 40.0977 30.5001 40.0977Z" stroke="black" stroke-width="0.8"/>
<path d="M30.5001 40.0977H12.5001C11.1746 40.0977 10.1001 41.146 10.1001 42.4391V43.9025C10.1001 45.1957 11.1746 46.244 12.5001 46.244H30.5001C31.8256 46.244 32.9001 45.1957 32.9001 43.9025V42.4391C32.9001 41.146 31.8256 40.0977 30.5001 40.0977Z" stroke="black" stroke-width="0.8"/>
<path d="M30.5001 40.0977H12.5001C11.1746 40.0977 10.1001 41.146 10.1001 42.4391V43.9025C10.1001 45.1957 11.1746 46.244 12.5001 46.244H30.5001C31.8256 46.244 32.9001 45.1957 32.9001 43.9025V42.4391C32.9001 41.146 31.8256 40.0977 30.5001 40.0977Z" stroke="black" stroke-width="0.8"/>
<path d="M30.5001 40.0977H12.5001C11.1746 40.0977 10.1001 41.146 10.1001 42.4391V43.9025C10.1001 45.1957 11.1746 46.244 12.5001 46.244H30.5001C31.8256 46.244 32.9001 45.1957 32.9001 43.9025V42.4391C32.9001 41.146 31.8256 40.0977 30.5001 40.0977Z" stroke="black" stroke-width="0.8"/>
<path d="M30.5001 40.0977H12.5001C11.1746 40.0977 10.1001 41.146 10.1001 42.4391V43.9025C10.1001 45.1957 11.1746 46.244 12.5001 46.244H30.5001C31.8256 46.244 32.9001 45.1957 32.9001 43.9025V42.4391C32.9001 41.146 31.8256 40.0977 30.5001 40.0977Z" stroke="black" stroke-width="0.8"/>
<path d="M19.9484 34.6586V22.7923C19.9484 21.8911 19.4985 21.0463 18.743 20.528C18.2651 20.2003 17.6952 20.0244 17.1111 20.0244H16.7156C16.2107 20.0244 15.718 20.1765 15.3048 20.4598L15.2054 20.528C14.4497 21.0463 14 21.8911 14 22.7923V23.9083C14 24.8096 14.4497 25.6543 15.2054 26.1727C15.6833 26.5005 16.253 26.6764 16.8371 26.6764H26.1629C26.747 26.6764 27.3167 26.5005 27.7946 26.1727L27.8844 26.111C28.5837 25.6313 29 24.8496 29 24.0156V22.7923C29 21.8911 28.5503 21.0463 27.7946 20.528C27.3167 20.2003 26.747 20.0244 26.1629 20.0244H26.0183C25.4342 20.0244 24.8644 20.2003 24.3865 20.528C23.6308 21.0463 23.181 21.8911 23.181 22.7923V34.6586" stroke="black" stroke-width="0.8"/>
<path d="M21.2 0.585366C21.2 0.262077 20.9314 0 20.6 0C20.2686 0 20 0.262077 20 0.585366V3.07317C20 3.39646 20.2686 3.65854 20.6 3.65854C20.9314 3.65854 21.2 3.39646 21.2 3.07317V0.585366Z" fill="black"/>
<path d="M31.7382 2.48984C31.8784 2.19695 31.7488 1.84857 31.4486 1.71169C31.1484 1.57482 30.7913 1.7013 30.651 1.99418L29.5714 4.24802C29.4311 4.54091 29.5607 4.8893 29.861 5.02617C30.1612 5.16304 30.5183 5.03656 30.6586 4.74368L31.7382 2.48984Z" fill="black"/>
<path d="M10.8409 1.99486C10.7025 1.70114 10.3462 1.57253 10.0451 1.70759C9.74406 1.84266 9.61223 2.19026 9.75067 2.48398L10.816 4.74426C10.9545 5.03799 11.3108 5.1666 11.6118 5.03154C11.9129 4.89647 12.0447 4.54887 11.9063 4.25515L10.8409 1.99486Z" fill="black"/>
<path d="M41.123 28.5361C48.9931 28.5361 55.373 34.7605 55.373 42.4386C55.373 50.1167 48.9931 56.341 41.123 56.341C33.253 56.341 26.873 50.1167 26.873 42.4386C26.873 34.7605 33.253 28.5361 41.123 28.5361ZM40.9736 34.9757C36.8315 34.9757 33.4736 38.2517 33.4736 42.2928C33.4739 46.3336 36.8317 49.6099 40.9736 49.6099C45.1154 49.6097 48.4733 46.3336 48.4736 42.2928C48.4736 38.2517 45.1157 34.9759 40.9736 34.9757Z" fill="#D9D9D9"/>
<mask id="mask0_1836_17902" style="mask-type:luminance" maskUnits="userSpaceOnUse" x="26" y="28" width="30" height="29">
<path d="M41.123 28.5361C48.9931 28.5361 55.373 34.7605 55.373 42.4386C55.373 50.1167 48.9931 56.341 41.123 56.341C33.253 56.341 26.873 50.1167 26.873 42.4386C26.873 34.7605 33.253 28.5361 41.123 28.5361ZM40.9736 34.9757C36.8315 34.9757 33.4736 38.2517 33.4736 42.2928C33.4739 46.3336 36.8317 49.6099 40.9736 49.6099C45.1154 49.6097 48.4733 46.3336 48.4736 42.2928C48.4736 38.2517 45.1157 34.9759 40.9736 34.9757Z" fill="white"/>
</mask>
<g mask="url(#mask0_1836_17902)">
<path d="M41.1231 28.536V29.7067C48.3304 29.7067 54.1731 35.4068 54.1731 42.4384H55.3731H56.5731C56.5731 34.1138 49.656 27.3652 41.1231 27.3652V28.536ZM55.3731 42.4384H54.1731C54.1731 49.47 48.3304 55.1701 41.1231 55.1701V56.3408V57.5116C49.656 57.5116 56.5731 50.763 56.5731 42.4384H55.3731ZM41.1231 56.3408V55.1701C33.9159 55.1701 28.0731 49.47 28.0731 42.4384H26.8731H25.6731C25.6731 50.763 32.5903 57.5116 41.1231 57.5116V56.3408ZM26.8731 42.4384H28.0731C28.0731 35.4068 33.9159 29.7067 41.1231 29.7067V28.536V27.3652C32.5903 27.3652 25.6731 34.1138 25.6731 42.4384H26.8731ZM40.9737 34.9756L40.9738 33.8048C36.169 33.8048 32.2737 37.6049 32.2737 42.2926H33.4737H34.6737C34.6737 38.8981 37.4943 36.1463 40.9737 36.1463V34.9756ZM33.4737 42.2926H32.2737C32.2741 46.98 36.1689 50.7805 40.9737 50.7805V49.6097V48.439C37.4946 48.439 34.674 45.6872 34.6737 42.2926H33.4737ZM40.9737 49.6097V50.7805C45.7782 50.7803 49.6734 46.98 49.6737 42.2926H48.4737L47.2737 42.2925C47.2735 45.6869 44.4528 48.4388 40.9737 48.439V49.6097ZM48.4737 42.2926H49.6737C49.6737 37.605 45.7785 33.805 40.9738 33.8048L40.9737 34.9756V36.1463C44.4531 36.1465 47.2737 38.8981 47.2737 42.2925L48.4737 42.2926Z" fill="black"/>
</g>
<path d="M36.9233 29.2686C36.9233 27.6521 38.2666 26.3418 39.9233 26.3418H42.9233C44.5802 26.3418 45.9233 27.6521 45.9233 29.2686V30.1906H36.9233V29.2686Z" fill="#D9D9D9"/>
<mask id="mask1_1836_17902" style="mask-type:luminance" maskUnits="userSpaceOnUse" x="36" y="26" width="10" height="5">
<path d="M36.9233 29.2686C36.9233 27.6521 38.2666 26.3418 39.9233 26.3418H42.9233C44.5802 26.3418 45.9233 27.6521 45.9233 29.2686V30.1906H36.9233V29.2686Z" fill="white"/>
</mask>
<g mask="url(#mask1_1836_17902)">
<path d="M35.7234 29.2685C35.7234 27.0054 37.6038 25.1709 39.9234 25.1709H42.9234C45.243 25.1709 47.1234 27.0054 47.1234 29.2685H44.7234C44.7234 28.2987 43.9176 27.5124 42.9234 27.5124H39.9234C38.9293 27.5124 38.1234 28.2987 38.1234 29.2685H35.7234ZM35.7234 30.1904V29.2685C35.7234 27.0054 37.6038 25.1709 39.9234 25.1709V27.5124C38.9293 27.5124 38.1234 28.2987 38.1234 29.2685V30.1904H35.7234ZM42.9234 25.1709C45.243 25.1709 47.1234 27.0054 47.1234 29.2685V30.1904H44.7234V29.2685C44.7234 28.2987 43.9176 27.5124 42.9234 27.5124V25.1709Z" fill="black"/>
</g>
<path d="M31.8947 53.08C30.4665 53.8994 28.6278 53.4341 27.7878 52.0408L26.2671 49.5179C25.4271 48.1246 25.904 46.3307 27.3323 45.5114L28.1468 45.0439L32.7092 52.6126L31.8947 53.08Z" fill="#D9D9D9"/>
<mask id="mask2_1836_17902" style="mask-type:luminance" maskUnits="userSpaceOnUse" x="25" y="45" width="8" height="9">
<path d="M31.8947 53.08C30.4665 53.8994 28.6278 53.4341 27.7878 52.0408L26.2671 49.5179C25.4271 48.1246 25.904 46.3307 27.3323 45.5114L28.1468 45.0439L32.7092 52.6126L31.8947 53.08Z" fill="white"/>
</mask>
<g mask="url(#mask2_1836_17902)">
<path d="M32.5029 54.0894C30.5035 55.2367 27.9294 54.5854 26.7535 52.6346L25.2327 50.1118C24.0568 48.1611 24.7243 45.6497 26.7238 44.5026L27.9405 46.5208C27.0835 47.0125 26.7975 48.0888 27.3015 48.9249L28.8222 51.4476C29.3262 52.2837 30.4294 52.5628 31.2862 52.0712L32.5029 54.0894ZM33.3175 53.6221L32.5029 54.0894C30.5035 55.2367 27.9294 54.5854 26.7535 52.6346L28.8222 51.4476C29.3262 52.2837 30.4294 52.5628 31.2862 52.0712L32.1009 51.6038L33.3175 53.6221ZM25.2327 50.1118C24.0568 48.1611 24.7243 45.6497 26.7238 44.5026L27.5385 44.0352L28.7551 46.0535L27.9405 46.5208C27.0835 47.0125 26.7975 48.0888 27.3015 48.9249L25.2327 50.1118Z" fill="black"/>
</g>
<path d="M50.7028 32.0002C52.1492 31.2118 53.9768 31.7166 54.785 33.1277L56.2483 35.6829C57.0563 37.0939 56.539 38.8771 55.0925 39.6654L54.2611 40.1188L49.8713 32.4534L50.7028 32.0002Z" fill="#D9D9D9"/>
<mask id="mask3_1836_17902" style="mask-type:luminance" maskUnits="userSpaceOnUse" x="49" y="31" width="8" height="10">
<path d="M50.7028 32.0002C52.1492 31.2118 53.9768 31.7166 54.785 33.1277L56.2483 35.6829C57.0563 37.0939 56.539 38.8771 55.0925 39.6654L54.2611 40.1188L49.8713 32.4534L50.7028 32.0002Z" fill="white"/>
</mask>
<g mask="url(#mask3_1836_17902)">
<path d="M50.1176 30.9782C52.1426 29.8745 54.7013 30.5812 55.8327 32.5568L57.296 35.1119C58.4273 37.0875 57.7029 39.5838 55.6779 40.6875L54.5073 38.6435C55.3752 38.1704 55.6857 37.1005 55.2008 36.2539L53.7375 33.6988C53.2527 32.8521 52.1561 32.5493 51.2882 33.0223L50.1176 30.9782ZM49.2861 31.4315L50.1176 30.9782C52.1426 29.8745 54.7013 30.5812 55.8327 32.5568L53.7375 33.6988C53.2527 32.8521 52.1561 32.5493 51.2882 33.0223L50.4567 33.4755L49.2861 31.4315ZM57.296 35.1119C58.4273 37.0875 57.7029 39.5838 55.6779 40.6875L54.8465 41.1407L53.6759 39.0968L54.5073 38.6435C55.3752 38.1704 55.6857 37.1005 55.2008 36.2539L57.296 35.1119Z" fill="black"/>
</g>
<path d="M27.0823 39.4815C25.6561 38.6586 25.1837 36.8636 26.0272 35.4723L27.5543 32.953C28.3978 31.5618 30.2375 31.1008 31.6637 31.9237L32.477 32.393L27.8956 39.9508L27.0823 39.4815Z" fill="#D9D9D9"/>
<mask id="mask4_1836_17902" style="mask-type:luminance" maskUnits="userSpaceOnUse" x="25" y="31" width="8" height="9">
<path d="M27.0823 39.4815C25.6561 38.6586 25.1837 36.8636 26.0272 35.4723L27.5543 32.953C28.3978 31.5618 30.2375 31.1008 31.6637 31.9237L32.477 32.393L27.8956 39.9508L27.0823 39.4815Z" fill="white"/>
</mask>
<g mask="url(#mask4_1836_17902)">
<path d="M26.4713 40.4892C24.4748 39.3372 23.8135 36.8242 24.9943 34.8764L26.5214 32.3572C27.7022 30.4092 30.2779 29.764 32.2745 30.916L31.0528 32.9314C30.1972 32.4377 29.0932 32.7142 28.5872 33.549L27.0601 36.0682C26.554 36.9031 26.8375 37.9801 27.6931 38.4738L26.4713 40.4892ZM27.2848 40.9585L26.4713 40.4892C24.4748 39.3372 23.8135 36.8242 24.9943 34.8764L27.0601 36.0682C26.554 36.9031 26.8375 37.9801 27.6931 38.4738L28.5065 38.9431L27.2848 40.9585ZM26.5214 32.3572C27.7022 30.4092 30.2779 29.764 32.2745 30.916L33.088 31.3853L31.8662 33.4007L31.0528 32.9314C30.1972 32.4377 29.0932 32.7142 28.5872 33.549L26.5214 32.3572Z" fill="black"/>
</g>
<path d="M54.9251 46.0523C56.3015 46.9521 56.6696 48.7701 55.7473 50.113L54.0772 52.5444C53.1548 53.8873 51.2914 54.2462 49.915 53.3464L49.1299 52.8332L54.14 45.5391L54.9251 46.0523Z" fill="#D9D9D9"/>
<mask id="mask5_1836_17902" style="mask-type:luminance" maskUnits="userSpaceOnUse" x="49" y="45" width="8" height="9">
<path d="M54.9251 46.0523C56.3015 46.9521 56.6696 48.7701 55.7473 50.113L54.0772 52.5444C53.1548 53.8873 51.2914 54.2462 49.915 53.3464L49.1299 52.8332L54.14 45.5391L54.9251 46.0523Z" fill="white"/>
</mask>
<g mask="url(#mask5_1836_17902)">
<path d="M55.5931 45.0796C57.5201 46.3395 58.0354 48.8846 56.744 50.7647L55.0741 53.196C53.7827 55.0759 51.1739 55.5787 49.2469 54.3189L50.5829 52.3739C51.4088 52.9137 52.5269 52.6983 53.0803 51.8926L54.7504 49.4612C55.3037 48.6555 55.0829 47.5646 54.257 47.0248L55.5931 45.0796ZM54.8081 44.5664L55.5931 45.0796C57.5201 46.3395 58.0354 48.8846 56.744 50.7647L54.7504 49.4612C55.3037 48.6555 55.0829 47.5646 54.257 47.0248L53.4721 46.5116L54.8081 44.5664ZM55.0741 53.196C53.7827 55.0759 51.1739 55.5787 49.2469 54.3189L48.4619 53.8057L49.798 51.8607L50.5829 52.3739C51.4088 52.9137 52.5269 52.6983 53.0803 51.8926L55.0741 53.196Z" fill="black"/>
</g>
<path d="M36.7732 55.6534C36.7732 57.2699 38.1164 58.5802 39.7732 58.5802H42.7732C44.4301 58.5802 45.7732 57.2699 45.7732 55.6534V54.7314H36.7732V55.6534Z" fill="#D9D9D9"/>
<mask id="mask6_1836_17902" style="mask-type:luminance" maskUnits="userSpaceOnUse" x="36" y="54" width="10" height="5">
<path d="M36.7732 55.6534C36.7732 57.2699 38.1164 58.5802 39.7732 58.5802H42.7732C44.4301 58.5802 45.7732 57.2699 45.7732 55.6534V54.7314H36.7732V55.6534Z" fill="white"/>
</mask>
<g mask="url(#mask6_1836_17902)">
<path d="M35.5732 55.6534C35.5732 57.9164 37.4536 59.751 39.7732 59.751H42.7732C45.0928 59.751 46.9732 57.9164 46.9732 55.6534H44.5732C44.5732 56.6233 43.7674 57.4095 42.7732 57.4095H39.7732C38.7792 57.4095 37.9732 56.6233 37.9732 55.6534H35.5732ZM35.5732 54.7314V55.6534C35.5732 57.9164 37.4536 59.751 39.7732 59.751V57.4095C38.7792 57.4095 37.9732 56.6233 37.9732 55.6534V54.7314H35.5732ZM42.7732 59.751C45.0928 59.751 46.9732 57.9164 46.9732 55.6534V54.7314H44.5732V55.6534C44.5732 56.6233 43.7674 57.4095 42.7732 57.4095V59.751Z" fill="black"/>
</g>
</svg>
