<svg width="104" height="20" viewBox="0 0 104 20" fill="none" xmlns="http://www.w3.org/2000/svg">
<rect y="2" width="16" height="16" rx="8" fill="#F4F4F4"/>
<path d="M9.06885 5.72266V13.5H8.09131V6.73242H8.04834L6.15771 7.98926V7.01172L8.09131 5.72266H9.06885Z" fill="black"/>
<rect x="22" y="2" width="16" height="16" rx="8" fill="#F4F4F4"/>
<path d="M27.5024 13.5L27.4917 12.791L30.145 9.99805C31.0688 9.02051 31.5093 8.49414 31.5093 7.77441C31.5093 6.97949 30.8325 6.45312 29.9624 6.45312C29.0386 6.45312 28.4478 7.04395 28.4478 7.91406H27.5347C27.5239 6.53906 28.5874 5.61523 29.9946 5.61523C31.4019 5.61523 32.4116 6.56055 32.4116 7.77441C32.4116 8.64453 32.0034 9.32129 30.6284 10.7393L28.8452 12.5762V12.6406H32.5513V13.5H27.5024Z" fill="black"/>
<rect x="44" y="2" width="16" height="16" rx="8" fill="#F4F4F4"/>
<path d="M52.0215 13.6074C50.4746 13.6074 49.3682 12.7803 49.3145 11.5449H50.292C50.3457 12.2861 51.0869 12.748 52.0107 12.748C53.0312 12.748 53.7832 12.1895 53.7832 11.3838C53.7832 10.5352 53.1064 9.93359 51.8926 9.93359H51.2588V9.08496H51.8926C52.8379 9.08496 53.4932 8.55859 53.4932 7.75293C53.4932 6.97949 52.9238 6.45312 52.043 6.45312C51.2158 6.45312 50.4531 6.91504 50.4102 7.67773H49.4756C49.5293 6.44238 50.668 5.61523 52.0537 5.61523C53.5361 5.61523 54.4385 6.58203 54.4277 7.69922C54.4385 8.58008 53.9229 9.23535 53.1064 9.46094V9.51465C54.1162 9.67578 54.7393 10.3955 54.7285 11.3838C54.7393 12.6621 53.5684 13.6074 52.0215 13.6074Z" fill="black"/>
<rect x="66" y="2" width="16" height="16" rx="8" fill="#FF7C6A"/>
<path d="M71.105 11.9102V11.1152L74.6069 5.72266H75.7993V11.0615H76.8843V11.9102H75.7993V13.5H74.8755V11.9102H71.105ZM72.147 11.0615H74.8755V6.94727H74.7788L72.147 10.9971V11.0615Z" fill="white"/>
<rect x="88" y="2" width="16" height="16" rx="8" fill="#F4F4F4"/>
<path d="M95.9839 13.6074C94.5767 13.6074 93.5132 12.7373 93.4595 11.5449H94.394C94.4692 12.2432 95.146 12.7588 95.9839 12.7588C96.9937 12.7588 97.7241 12.0176 97.7241 11.04C97.7241 10.0303 96.9614 9.28906 95.9194 9.27832C95.2642 9.26758 94.7593 9.47168 94.4692 9.97656H93.5347L94.0825 5.72266H98.2935V6.58203H94.8882L94.5981 8.85938H94.6733C95.0171 8.59082 95.5435 8.4082 96.0913 8.4082C97.5737 8.4082 98.6694 9.50391 98.6694 11.0186C98.6694 12.5225 97.5308 13.6074 95.9839 13.6074Z" fill="black"/>
<line x1="16" y1="9.6" x2="22" y2="9.6" stroke="#D4D4D4" stroke-width="0.8"/>
<line x1="38" y1="9.6" x2="44" y2="9.6" stroke="#D4D4D4" stroke-width="0.8"/>
<line x1="60" y1="9.6" x2="66" y2="9.6" stroke="#D4D4D4" stroke-width="0.8"/>
<line x1="82" y1="9.6" x2="88" y2="9.6" stroke="#D4D4D4" stroke-width="0.8"/>
</svg>
