<svg width="25" height="25" viewBox="0 0 25 25" fill="none" xmlns="http://www.w3.org/2000/svg">
<circle cx="12.5" cy="12.5" r="12" fill="white" stroke="black"/>
<path d="M12.5 0.5C14.1623 0.500001 15.7194 0.815799 17.1768 1.44434C18.6437 2.07704 19.9136 2.93229 20.9902 4.00977C22.067 5.08741 22.9232 6.35695 23.5576 7.82324C24.1876 9.27927 24.5024 10.8363 24.5 12.499C24.4976 14.1627 24.1819 15.7209 23.5557 17.1777C22.9256 18.6433 22.07 19.9129 20.9902 20.9902C19.91 22.068 18.6403 22.9241 17.1768 23.5576C15.7233 24.1867 14.1655 24.5016 12.5 24.5C10.836 24.5 9.27875 24.1841 7.82324 23.5557C6.35797 22.923 5.08824 22.0679 4.00977 20.9902C2.93143 19.9127 2.07617 18.6427 1.44434 17.1768C0.816661 15.7203 0.500833 14.1632 0.5 12.5C0.499198 10.837 0.81508 9.27954 1.44434 7.82324C2.07789 6.35706 2.93302 5.08735 4.00977 4.00977C5.08644 2.93229 6.35629 2.07704 7.82324 1.44434C9.28056 0.815802 10.8377 0.5 12.5 0.5ZM17.8125 7.71875C17.3393 7.71875 16.9161 7.87689 16.584 8.20898L10.75 14.043L8.41602 11.709C8.08392 11.3769 7.66073 11.2188 7.1875 11.2188C6.71427 11.2188 6.29108 11.3769 5.95898 11.709C5.62689 12.0411 5.46875 12.4643 5.46875 12.9375C5.46875 13.4107 5.62689 13.8339 5.95898 14.166L9.52148 17.7285C9.85894 18.066 10.2754 18.25 10.75 18.25C11.2246 18.25 11.6411 18.066 11.9785 17.7285L19.041 10.666C19.3731 10.3339 19.5312 9.91073 19.5312 9.4375C19.5312 8.96427 19.3731 8.54108 19.041 8.20898C18.7089 7.87689 18.2857 7.71875 17.8125 7.71875Z" fill="#F56156" stroke="black"/>
</svg>
