<svg width="26" height="36" viewBox="0 0 26 36" fill="none" xmlns="http://www.w3.org/2000/svg">
<path d="M9 6.77678C9 8.01749 8.7626 9.05924 8.2876 9.90205C7.8126 10.7449 7.1792 11.3246 6.3876 11.6412L6.95 22.1785C6.9668 22.401 6.9 22.5935 6.75 22.7562C6.6 22.9187 6.4168 23 6.2 23H3.8C3.5834 23 3.4 22.9187 3.25 22.7562C3.1 22.5935 3.0334 22.401 3.05 22.1785L3.6126 11.6412C2.821 11.3246 2.1876 10.7449 1.7126 9.90205C1.2376 9.05924 1 8.01749 1 6.77678C1 5.68156 1.1772 4.61413 1.5314 3.57451C1.8856 2.53487 2.375 1.67922 3 1.00753C3.625 0.335844 4.2918 0 5 0C5.7084 0 6.375 0.335844 7 1.00753C7.625 1.67922 8.1146 2.53487 8.4688 3.57451C8.823 4.61413 9 5.68156 9 6.77678Z" fill="#F56156"/>
<path d="M18.9741 5.17977e-06C19.0815 5.17977e-06 19.1851 0.0416507 19.2611 0.115039C19.337 0.188423 19.3802 0.288482 19.3802 0.392251V8.40878C19.379 8.46183 19.399 8.51366 19.4368 8.5521C19.4746 8.59032 19.5268 8.61286 19.5814 8.61432C19.6362 8.61556 19.69 8.59592 19.7298 8.55964C19.7696 8.52295 19.793 8.47135 19.7942 8.41821L20.1731 0.373392C20.1781 0.272626 20.2223 0.176911 20.2981 0.107496C20.3739 0.0380922 20.4748 -0.000514526 20.5792 5.17977e-06H21.4249C21.529 -0.00011078 21.6306 0.0381242 21.706 0.107496C21.7814 0.176869 21.826 0.272896 21.831 0.373392L22.2079 8.41821C22.2091 8.47135 22.2325 8.52295 22.2723 8.55964C22.3121 8.59617 22.3659 8.61558 22.4207 8.61432C22.4757 8.61305 22.5273 8.59042 22.5653 8.5521C22.6032 8.51364 22.625 8.46192 22.6238 8.40878V0.392251C22.6238 0.288735 22.6654 0.188382 22.741 0.115039C22.8164 0.0419342 22.9192 0.000594206 23.0262 5.17977e-06H23.4967C23.6998 9.65304e-05 23.896 0.0746772 24.0454 0.207443C24.1946 0.339997 24.2859 0.521653 24.3031 0.716609L24.9906 8.65393C25.0394 9.2189 24.8972 9.78422 24.5883 10.2663C24.2793 10.7481 23.8192 11.122 23.2741 11.3318L23.1881 11.3657C22.9032 11.475 22.6592 11.6669 22.4911 11.9145C22.3229 12.1621 22.2373 12.4539 22.2469 12.7499L22.573 23.4801C22.573 23.8831 22.4073 24.2699 22.1121 24.5549C21.817 24.8399 21.4165 25 20.9991 25C20.5816 25 20.1813 24.8399 19.8859 24.5549C19.5908 24.2699 19.4252 23.8833 19.4252 23.4801L19.7532 12.7499C19.763 12.4539 19.6774 12.1621 19.5092 11.9145C19.3408 11.6669 19.0971 11.475 18.8119 11.3657L18.7262 11.3318C18.1807 11.122 17.7189 10.7485 17.41 10.2663C17.1009 9.78381 16.9603 9.21737 17.0097 8.65204L17.697 0.716609C17.7141 0.521439 17.8073 0.340051 17.9567 0.207443C18.1063 0.0746946 18.3024 9.65226e-05 18.5054 5.17977e-06H18.9741Z" fill="#FFB2A7"/>
<path d="M0 24.6929V15C0 14.4477 0.447716 14 1 14H9.0037C9.55599 14 10.0037 14.4477 10.0037 15V23.0925C10.0037 24.7473 11.3452 26.0888 13 26.0888C14.3839 26.0888 15.5057 24.967 15.5057 23.5831V15C15.5057 14.4477 15.9535 14 16.5057 14H25C25.5523 14 26 14.4477 26 15V24.6929C26 29.1284 23.0784 33.0338 18.8234 34.2861L16.9528 34.8366C14.3723 35.5961 11.6277 35.5961 9.04724 34.8366L7.1766 34.2861C2.92164 33.0338 0 29.1284 0 24.6929Z" fill="#F56156"/>
</svg>
