<svg width="45" height="37" viewBox="0 0 45 37" fill="current" xmlns="http://www.w3.org/2000/svg">
<path d="M32 8.90747C32 13.8269 27.7464 17.8149 22.5 17.8149C21.559 17.8172 20.6219 17.6863 19.7129 17.4256C19.0194 17.8022 17.427 18.525 14.748 18.9958C14.5105 19.0365 14.33 18.7719 14.4238 18.5352C14.8442 17.4714 15.2242 16.0538 15.3382 14.761C13.8835 13.1958 13 11.1471 13 8.90747C13 3.988 17.2536 0 22.5 0C27.7464 0 32 3.988 32 8.90747ZM18.9375 8.90747C18.9375 8.56999 18.8124 8.24632 18.5897 8.00768C18.367 7.76904 18.0649 7.63498 17.75 7.63498C17.4351 7.63498 17.133 7.76904 16.9103 8.00768C16.6876 8.24632 16.5625 8.56999 16.5625 8.90747C16.5625 9.24496 16.6876 9.56862 16.9103 9.80726C17.133 10.0459 17.4351 10.18 17.75 10.18C18.0649 10.18 18.367 10.0459 18.5897 9.80726C18.8124 9.56862 18.9375 9.24496 18.9375 8.90747ZM23.6875 8.90747C23.6875 8.56999 23.5624 8.24632 23.3397 8.00768C23.117 7.76904 22.8149 7.63498 22.5 7.63498C22.1851 7.63498 21.883 7.76904 21.6603 8.00768C21.4376 8.24632 21.3125 8.56999 21.3125 8.90747C21.3125 9.24496 21.4376 9.56862 21.6603 9.80726C21.883 10.0459 22.1851 10.18 22.5 10.18C22.8149 10.18 23.117 10.0459 23.3397 9.80726C23.5624 9.56862 23.6875 9.24496 23.6875 8.90747ZM27.25 10.18C27.5649 10.18 27.867 10.0459 28.0897 9.80726C28.3124 9.56862 28.4375 9.24496 28.4375 8.90747C28.4375 8.56999 28.3124 8.24632 28.0897 8.00768C27.867 7.76904 27.5649 7.63498 27.25 7.63498C26.9351 7.63498 26.633 7.76904 26.4103 8.00768C26.1876 8.24632 26.0625 8.56999 26.0625 8.90747C26.0625 9.24496 26.1876 9.56862 26.4103 9.80726C26.633 10.0459 26.9351 10.18 27.25 10.18Z" fill="currentColor"/>
<path d="M16.748 28.7754C16.748 30.1621 17.4609 31.5879 18.6523 32.2227L18.2031 32.7988C17.3389 32.3252 16.7139 31.4365 16.3965 30.3867C16.084 31.5 15.4639 32.4668 14.5996 32.9746L14.1406 32.4082C15.3125 31.7246 16.0156 30.2109 16.0254 28.7754V28.375H14.3457V27.7402H16.0254V26.4316H16.7578V27.7402H18.418V28.375H16.748V28.7754ZM21.6699 26.1094V34.791H20.9277V30.2793H19.7461V34.3516H19.0137V26.2949H19.7461V29.625H20.9277V26.1094H21.6699ZM27.5195 26.7539V27.3789H24.1309V28.4727H27.2754V29.0977H24.1309V30.2402C25.9814 30.2402 27.0068 30.2061 28.2324 30.0059L28.3105 30.6309C27.041 30.8359 25.9766 30.875 24.0625 30.875H23.3594V26.7539H27.5195ZM30.0195 26.1191V31.5H29.2578V26.1191H30.0195ZM27.1387 31.627C28.9453 31.6172 30.0586 32.1934 30.0586 33.1895C30.0586 34.2051 28.9453 34.7715 27.1387 34.7715C25.293 34.7715 24.1992 34.2051 24.1992 33.1895C24.1992 32.1934 25.293 31.6172 27.1387 31.627ZM27.1387 32.2324C25.7715 32.2324 24.9609 32.5938 24.9609 33.1895C24.9609 33.8047 25.7715 34.166 27.1387 34.166C28.4668 34.166 29.3066 33.8047 29.3066 33.1895C29.3066 32.5938 28.4668 32.2324 27.1387 32.2324Z" fill="currentColor"/>
</svg>
