<svg width="45" height="37" viewBox="0 0 45 37" fill="none" xmlns="http://www.w3.org/2000/svg">
<path d="M23.7667 0.405333C23.4012 0.142227 22.9568 0 22.5 0C22.0432 0 21.5988 0.142227 21.2333 0.405333L13.8444 5.72533C13.5823 5.91411 13.3694 6.1589 13.2229 6.44031C13.0763 6.72173 13 7.03204 13 7.34667V16.9733C13 17.5108 13.2224 18.0263 13.6183 18.4064C14.0142 18.7865 14.5512 19 15.1111 19H19.2278C19.5357 19 19.8311 18.8826 20.0488 18.6735C20.2666 18.4645 20.3889 18.181 20.3889 17.8853V12.92C20.3889 12.3825 20.6113 11.867 21.0072 11.4869C21.4031 11.1069 21.9401 10.8933 22.5 10.8933C23.0599 10.8933 23.5969 11.1069 23.9928 11.4869C24.3887 11.867 24.6111 12.3825 24.6111 12.92V17.8853C24.6111 18.181 24.7334 18.4645 24.9512 18.6735C25.1689 18.8826 25.4643 19 25.7722 19H29.8889C30.4488 19 30.9858 18.7865 31.3817 18.4064C31.7776 18.0263 32 17.5108 32 16.9733V7.34667C32 7.03204 31.9237 6.72173 31.7771 6.44031C31.6306 6.1589 31.4177 5.91411 31.1556 5.72533L23.7667 0.405333Z" fill="currentColor"/>
<path d="M25.4736 32.1934V34.6738H19.4971V32.1934H25.4736ZM20.2588 32.7891V34.0781H24.7217V32.7891H20.2588ZM25.9814 26.8418V27.4375H18.9404V26.8418H22.1045V25.9824H22.8662V26.8418H25.9814ZM22.4854 27.7891C24.2822 27.7988 25.2979 28.209 25.2979 29.0195C25.2979 29.7812 24.4238 30.1865 22.8662 30.2402V30.9141H26.4404V31.5293H18.5303V30.9141H22.1045V30.2402C20.542 30.1865 19.6631 29.7812 19.6631 29.0195C19.6631 28.209 20.6885 27.7988 22.4854 27.7891ZM22.4854 28.3262C21.2061 28.3359 20.4736 28.5703 20.4834 29.0195C20.4736 29.459 21.2061 29.7129 22.4854 29.7129C23.7549 29.7129 24.4873 29.459 24.4873 29.0195C24.4873 28.5703 23.7549 28.3359 22.4854 28.3262Z" fill="currentColor"/>
</svg>
