<svg width="96" height="23" viewBox="0 0 96 23" fill="none" xmlns="http://www.w3.org/2000/svg">
<path d="M1.94613 7.1H5.84613V18.1H10.2661L9.64613 21.5H1.94613V7.1ZM14.7696 16.6C14.7696 17.3067 14.8496 17.82 15.0096 18.14C15.1696 18.4467 15.4229 18.6 15.7696 18.6C16.1296 18.6 16.3829 18.4467 16.5296 18.14C16.6896 17.82 16.7696 17.3067 16.7696 16.6V7.1H20.6696V16.42C20.6696 18.2733 20.2696 19.62 19.4696 20.46C18.6696 21.2867 17.4362 21.7 15.7696 21.7C14.1162 21.7 12.8829 21.2867 12.0696 20.46C11.2696 19.62 10.8696 18.2733 10.8696 16.42V7.1H14.7696V16.6ZM26.5205 7.1L29.3405 15.32V7.1H33.1405V21.5H28.4605L25.9005 14.02V21.5H22.1005V9.16L21.2805 7.1H26.5205Z" fill="#FF7C6A"/>
<path d="M34.4344 14.4C34.4344 12.5067 34.6544 11.02 35.0944 9.94C35.5344 8.84667 36.1944 8.07333 37.0744 7.62C37.9677 7.16667 39.0744 6.94 40.3944 6.94C40.8211 6.94 41.3077 6.96667 41.8544 7.02C42.4144 7.06 42.9544 7.14 43.4744 7.26V12.54H41.0544L40.7344 10.12C40.3744 10.12 40.0611 10.1667 39.7944 10.26C39.5411 10.34 39.3277 10.52 39.1544 10.8C38.9811 11.08 38.8477 11.5067 38.7544 12.08C38.6744 12.6533 38.6344 13.42 38.6344 14.38C38.6344 15.42 38.7477 16.24 38.9744 16.84C39.2011 17.4267 39.5411 17.8467 39.9944 18.1C40.4611 18.34 41.0544 18.46 41.7744 18.46C42.0944 18.46 42.4011 18.44 42.6944 18.4C42.9877 18.36 43.3011 18.3133 43.6344 18.26V21.42C43.2477 21.5133 42.7811 21.58 42.2344 21.62C41.6877 21.6733 41.2011 21.7 40.7744 21.7C38.4944 21.7 36.8677 21.0867 35.8944 19.86C34.9211 18.6333 34.4344 16.8133 34.4344 14.4ZM45.0321 21.5V7.1H48.9321V12.64H50.9321V7.1H54.8321V21.5H50.9321V15.84H48.9321V21.5H45.0321ZM59.2136 21.7C58.6803 21.7 58.1803 21.5667 57.7136 21.3C57.247 21.02 56.867 20.62 56.5736 20.1C56.2803 19.58 56.1336 18.9533 56.1336 18.22C56.1336 17.0733 56.5336 16.2067 57.3336 15.62C58.147 15.0333 59.1936 14.74 60.4736 14.74H61.3336V13.64C61.3336 13.2533 61.2003 12.9933 60.9336 12.86C60.667 12.7133 60.327 12.64 59.9136 12.64C59.407 12.64 58.9203 12.6867 58.4536 12.78C57.987 12.8733 57.5203 13.0067 57.0536 13.18V10.38C57.6536 10.2467 58.2736 10.1267 58.9136 10.02C59.567 9.9 60.2203 9.84 60.8736 9.84C61.607 9.84 62.2803 9.93333 62.8936 10.12C63.507 10.2933 64.0003 10.6133 64.3736 11.08C64.747 11.5467 64.9336 12.2133 64.9336 13.08V21.5H61.8136L61.5736 20.64C61.2403 21 60.867 21.2667 60.4536 21.44C60.0403 21.6133 59.627 21.7 59.2136 21.7ZM60.6136 19.06C60.8803 19.06 61.1203 18.94 61.3336 18.7V16.72H61.0736C60.6736 16.72 60.3336 16.82 60.0536 17.02C59.7736 17.2067 59.6336 17.4933 59.6336 17.88C59.6336 18.2533 59.7336 18.5467 59.9336 18.76C60.1336 18.96 60.3603 19.06 60.6136 19.06ZM70.936 10H73.116V12.7H70.936V17.68C70.936 18.0533 71.0293 18.3267 71.216 18.5C71.416 18.6733 71.7293 18.76 72.156 18.76C72.3693 18.76 72.556 18.7533 72.716 18.74C72.876 18.7133 73.0093 18.6867 73.116 18.66V21.32C72.796 21.4267 72.456 21.5133 72.096 21.58C71.7493 21.66 71.396 21.7 71.036 21.7C69.8093 21.7 68.8826 21.44 68.256 20.92C67.6426 20.3867 67.336 19.44 67.336 18.08V12.7H65.836V10H67.336V7.48H70.936V10Z" fill="black"/>
<path d="M60.35 22.001C62.7523 22.001 64.7 20.3219 64.7 18.2505C64.7 16.1792 62.7523 14.5 60.35 14.5C57.9477 14.5 56 16.1792 56 18.2505C56 19.1935 56.404 20.0561 57.0712 20.7151C57.0184 21.2595 56.8444 21.8564 56.652 22.3043C56.609 22.4039 56.6922 22.5154 56.8004 22.4982C58.0271 22.3 58.7563 21.9957 59.0733 21.8371C59.4897 21.9469 59.919 22.002 60.35 22.001Z" fill="black"/>
<path d="M59.3 18C59.3 17.1716 59.9716 16.5 60.8 16.5H61.3V19.5H60.8C59.9716 19.5 59.3 18.8284 59.3 18Z" fill="white"/>
<path d="M14.8 4.03571C14.8 4.68304 14.6813 5.22656 14.4438 5.66629C14.2063 6.10603 13.8896 6.40848 13.4938 6.57366L13.775 12.0714C13.7834 12.1875 13.75 12.2879 13.675 12.3728C13.6 12.4576 13.5084 12.5 13.4 12.5H12.2C12.0917 12.5 12 12.4576 11.925 12.3728C11.85 12.2879 11.8167 12.1875 11.825 12.0714L12.1063 6.57366C11.7105 6.40848 11.3938 6.10603 11.1563 5.66629C10.9188 5.22656 10.8 4.68304 10.8 4.03571C10.8 3.46429 10.8886 2.90737 11.0657 2.36496C11.2428 1.82254 11.4875 1.37612 11.8 1.02567C12.1125 0.675223 12.4459 0.5 12.8 0.5C13.1542 0.5 13.4875 0.675223 13.8 1.02567C14.1125 1.37612 14.3573 1.82254 14.5344 2.36496C14.7115 2.90737 14.8 3.46429 14.8 4.03571Z" fill="#FF7C6A"/>
<path d="M17.6872 0.499026C17.7409 0.499026 17.7927 0.520592 17.8307 0.558596C17.8687 0.596596 17.8903 0.648428 17.8903 0.702151V4.85352C17.8897 4.881 17.8997 4.90783 17.9186 4.92774C17.9375 4.94755 17.9635 4.95921 17.9909 4.95996C18.0183 4.96061 18.0452 4.95045 18.0651 4.93164C18.085 4.91264 18.0967 4.88592 18.0973 4.8584L18.2868 0.692385C18.2893 0.640203 18.3114 0.590637 18.3493 0.55469C18.3872 0.51877 18.4377 0.498757 18.4899 0.499026H18.9128C18.9649 0.498966 19.0157 0.518765 19.0534 0.55469C19.0911 0.590613 19.1134 0.640357 19.1159 0.692385L19.3044 4.8584C19.305 4.88592 19.3167 4.91264 19.3366 4.93164C19.3565 4.95054 19.3834 4.96061 19.4108 4.95996C19.4383 4.95928 19.4641 4.94758 19.4831 4.92774C19.5021 4.90782 19.513 4.88104 19.5124 4.85352V0.702151C19.5124 0.648545 19.5332 0.596577 19.571 0.558596C19.6087 0.520745 19.6601 0.499315 19.7136 0.499026H19.9489C20.0505 0.499073 20.1486 0.537695 20.2233 0.606448C20.2978 0.675089 20.3436 0.769176 20.3522 0.87012L20.695 4.98047C20.7194 5.27306 20.6493 5.56577 20.4948 5.81543C20.3403 6.06505 20.1094 6.25859 19.8366 6.36719L19.7936 6.38477C19.6513 6.44137 19.53 6.54087 19.446 6.66895C19.3619 6.79717 19.3191 6.94828 19.3239 7.10157L19.487 12.6582C19.487 12.8669 19.4041 13.0672 19.2565 13.2148C19.1089 13.3624 18.9086 13.4453 18.6999 13.4453C18.4912 13.4453 18.2909 13.3624 18.1432 13.2148C17.9956 13.0672 17.9128 12.867 17.9128 12.6582L18.0768 7.10157C18.0817 6.9483 18.0389 6.79716 17.9548 6.66895C17.8706 6.54072 17.7487 6.44137 17.6061 6.38477L17.5632 6.36719C17.2903 6.25855 17.0595 6.06514 16.905 5.81543C16.7504 5.56557 16.6801 5.27226 16.7048 4.9795L17.0485 0.87012C17.0571 0.769054 17.1037 0.675117 17.1784 0.606448C17.253 0.537822 17.3505 0.499182 17.4518 0.499026H17.6872Z" fill="#FF7C6A"/>
</svg>
