<svg width="45" height="37" viewBox="0 0 45 37" fill="none" xmlns="http://www.w3.org/2000/svg">
<path d="M29.8889 0H15.1111C13.95 0 13 0.95 13 2.11111V16.8889C13 18.05 13.95 19 15.1111 19H29.8889C31.05 19 32 18.05 32 16.8889V2.11111C32 0.95 31.05 0 29.8889 0ZM17.2222 4.22222H19.3333V6.33333H17.2222V4.22222ZM17.2222 8.44444H19.3333V10.5556H17.2222V8.44444ZM17.2222 12.6667H19.3333V14.7778H17.2222V12.6667ZM27.7778 14.7778H21.4444V12.6667H27.7778V14.7778ZM27.7778 10.5556H21.4444V8.44444H27.7778V10.5556ZM27.7778 6.33333H21.4444V4.22222H27.7778V6.33333Z" fill="currentColor"/>
<path d="M8.68652 26.1094V34.791H7.94434V30.1914H6.7334V34.3516H6.00098V26.2949H6.7334V29.5566H7.94434V26.1094H8.68652ZM4.8877 27.125V32.457H1.56738V27.125H4.8877ZM2.29004 27.7402V31.8418H4.16504V27.7402H2.29004ZM13.042 27.9258C13.042 29.0293 13.9893 30.0059 15.2881 30.377L14.9268 30.9727C13.9014 30.6699 13.0811 30.0107 12.6807 29.1465C12.2998 30.0986 11.4893 30.8457 10.4443 31.1973L10.0635 30.5918C11.3525 30.1816 12.2803 29.1172 12.2803 27.9258V27.8086H10.2783V27.1934H12.2803V26.1094H13.0518V27.1934H15.0342V27.8086H13.042V27.9258ZM17.0557 26.1191V31.4414H16.2939V26.1191H17.0557ZM14.1553 31.627C15.9717 31.6172 17.0752 32.1934 17.085 33.1895C17.0752 34.2051 15.9717 34.7715 14.1553 34.7715C12.3291 34.7715 11.2256 34.2051 11.2256 33.1895C11.2256 32.1934 12.3291 31.6172 14.1553 31.627ZM14.1553 32.2324C12.7979 32.2324 11.9971 32.5938 11.9971 33.1895C11.9971 33.8047 12.7979 34.166 14.1553 34.166C15.5029 34.166 16.3232 33.8047 16.3232 33.1895C16.3232 32.5938 15.5029 32.2324 14.1553 32.2324ZM25.6982 26.1094V34.8105H24.9365V26.1094H25.6982ZM23.0615 26.9199V30.0059H19.8193V32.0566C21.2598 32.0566 22.5439 31.9932 24.0967 31.7441L24.1748 32.3887C22.5732 32.6426 21.2549 32.7012 19.7607 32.7012H19.0381V29.3809H22.29V27.5547H19.0186V26.9199H23.0615ZM31.499 27.3887C31.499 28.873 33.1982 30.2012 34.7119 30.4844L34.3604 31.1289C33.0518 30.8262 31.6699 29.8936 31.1084 28.6094C30.5469 29.8887 29.1699 30.8213 27.8564 31.1289L27.5049 30.4844C29.0088 30.1914 30.6982 28.8828 30.6982 27.3887V26.7246H31.499V27.3887ZM35.1221 32.9746V33.6094H27.1729V32.9746H35.1221ZM42.8467 30.8066V31.4316H36.8408V26.8613H42.749V27.5059H37.6221V28.7949H42.5635V29.4102H37.6221V30.8066H42.8467ZM43.7646 33.0234V33.6582H35.8154V33.0234H43.7646Z" fill="currentColor"/>
</svg>
