<svg width="19" height="16" viewBox="0 0 19 16" fill="none" xmlns="http://www.w3.org/2000/svg">
<path d="M17.8333 8.41763C17.8333 8.00847 17.8292 7.1818 17.82 6.77097C17.7658 4.2168 17.7383 2.9393 16.7958 1.99347C15.8533 1.0468 14.5417 1.0143 11.9175 0.948466C10.3061 0.907803 8.69392 0.907803 7.08251 0.948466C4.45834 1.0143 3.14667 1.0468 2.20417 1.99347C1.26167 2.9393 1.23417 4.2168 1.17917 6.77097C1.16163 7.59087 1.16163 8.41106 1.17917 9.23097C1.23417 11.7851 1.26167 13.0626 2.20417 14.0085C3.14667 14.9551 4.45834 14.9876 7.08251 15.0535C7.7514 15.0701 8.41834 15.0801 9.08334 15.0835" stroke="black" stroke-width="1.5" stroke-linecap="round" stroke-linejoin="round"/>
<path d="M5.33331 5.08594L7.78498 6.53594C9.21415 7.38094 9.78498 7.38094 11.215 6.53594L13.6666 5.08594M17.8333 12.5859H11.1666M17.8333 12.5859C17.8333 12.0026 16.1716 10.9126 15.75 10.5026M17.8333 12.5859C17.8333 13.1693 16.1716 14.2601 15.75 14.6693" stroke="black" stroke-width="1.5" stroke-linecap="round" stroke-linejoin="round"/>
</svg>
