<svg width="45" height="37" viewBox="0 0 45 37" fill="none" xmlns="http://www.w3.org/2000/svg">
<path d="M14.5833 19C14.5833 19 13 19 13 17.4167C13 15.8333 14.5833 11.0833 22.5 11.0833C30.4167 11.0833 32 15.8333 32 17.4167C32 19 30.4167 19 30.4167 19H14.5833ZM22.5 9.5C23.7598 9.5 24.968 8.99955 25.8588 8.10876C26.7496 7.21796 27.25 6.00978 27.25 4.75C27.25 3.49022 26.7496 2.28204 25.8588 1.39124C24.968 0.500445 23.7598 0 22.5 0C21.2402 0 20.032 0.500445 19.1412 1.39124C18.2504 2.28204 17.75 3.49022 17.75 4.75C17.75 6.00978 18.2504 7.21796 19.1412 8.10876C20.032 8.99955 21.2402 9.5 22.5 9.5Z" fill="currentColor"/>
<path d="M18.5742 26.9883V32.584H14.5703V26.9883H18.5742ZM15.3125 27.6035V31.959H17.8125V27.6035H15.3125ZM20.9277 26.1094V29.5762H22.3828V30.2402H20.9277V34.791H20.166V26.1094H20.9277ZM30.0098 26.1094V34.8105H29.2383V26.1094H30.0098ZM25.3906 26.7832C26.6797 26.793 27.6074 27.9648 27.6074 29.8105C27.6074 31.6562 26.6797 32.8281 25.3906 32.8281C24.0918 32.8281 23.1738 31.6562 23.1738 29.8105C23.1738 27.9648 24.0918 26.793 25.3906 26.7832ZM25.3906 27.4668C24.5215 27.4766 23.916 28.3945 23.916 29.8105C23.916 31.2266 24.5215 32.1445 25.3906 32.1445C26.2598 32.1445 26.8652 31.2266 26.8652 29.8105C26.8652 28.3945 26.2598 27.4766 25.3906 27.4668Z" fill="currentColor"/>
</svg>
