<svg width="45" height="37" viewBox="0 0 45 37" fill="none" xmlns="http://www.w3.org/2000/svg">
<path d="M30.5 17.5L26.6396 13.6396M26.6396 13.6396C27.2999 12.9793 27.8237 12.1953 28.1811 11.3326C28.5385 10.4698 28.7224 9.54507 28.7224 8.61121C28.7224 7.67735 28.5385 6.75264 28.1811 5.88987C27.8237 5.0271 27.2999 4.24316 26.6396 3.58283C25.9793 2.92249 25.1953 2.39868 24.3326 2.04131C23.4698 1.68394 22.5451 1.5 21.6112 1.5C20.6774 1.5 19.7526 1.68394 18.8899 2.04131C18.0271 2.39868 17.2432 2.92249 16.5828 3.58283C15.2492 4.91644 14.5 6.7252 14.5 8.61121C14.5 10.4972 15.2492 12.306 16.5828 13.6396C17.9164 14.9732 19.7252 15.7224 21.6112 15.7224C23.4972 15.7224 25.306 14.9732 26.6396 13.6396Z" stroke="currentColor" stroke-width="2.5" stroke-linecap="round" stroke-linejoin="round"/>
<path d="M12.5391 28.4434V29.0586H6.62109V26.4512H12.4512V27.0859H7.39258V28.4434H12.5391ZM13.4766 29.7617V30.3965H9.89258V31.2656H12.4609V33.1992H7.30469V34.0781H12.7246V34.6934H6.54297V32.6328H11.709V31.8516H6.52344V31.2656H9.14062V30.3965H5.56641V29.7617H13.4766ZM21.3965 26.1094V34.8105H20.6348V30.0938H18.9453V29.4492H20.6348V26.1094H21.3965ZM18.418 26.9199V29.957H15.3027V32.0664C16.7969 32.0664 17.8809 32.0225 19.1504 31.7832L19.209 32.4277C17.9004 32.6621 16.7773 32.7109 15.2051 32.7207H14.541V29.3223H17.6758V27.5547H14.5117V26.9199H18.418ZM30.8008 33.043V33.6777H22.8516V33.043H26.4258V31.168H23.7891V26.7246H24.5605V28.2969H29.0723V26.7246H29.8242V31.168H27.1777V33.043H30.8008ZM24.5605 30.543H29.0723V28.9219H24.5605V30.543ZM38.6719 26.1094V34.791H37.9004V26.1094H38.6719ZM36.1035 27.0566C36.0938 29.5566 34.9316 31.7637 32.0215 33.1602L31.6016 32.5352C33.9502 31.4219 35.1465 29.7568 35.3223 27.6816H32.002V27.0566H36.1035Z" fill="currentColor"/>
</svg>
